<svg xmlns="http://www.w3.org/2000/svg" viewBox="0 0 978.58 246.34"><defs><style>.cls-1{fill:#dd7d00;opacity:0.6;}.cls-2{fill:none;stroke:#666;stroke-width:5px;}.cls-3{fill:#afafaf;}</style></defs><g id="Layer_2" data-name="Layer 2"><g id="Layer_1-2" data-name="Layer 1"><polygon class="cls-1" points="128.75 0 263.57 84.45 225.5 226.44 95.06 145.39 128.75 0"/><polygon class="cls-1" points="129.06 0.09 219.76 130.79 128.88 246.34 39.29 122.64 129.06 0.09"/><polygon class="cls-1" points="128.75 0 159.91 145.39 33.71 227.17 0 84.06 128.75 0"/><line class="cls-2" x1="314.75" x2="314.75" y2="246.34"/><path class="cls-3" d="M414.12,72.5C429,72.5,438.49,81,442.89,92c4.74,11.68,3.21,25.21-8.63,33.67,13.54,5.76,18.44,18.28,18.44,29.45,0,17.76-11.67,35.7-34.35,35.7H364.89V72.5Zm-32.31,47h32c18.61,0,18.95-30.79.33-30.79H381.81Zm0,54.66h36.54c11.51,0,17.26-9.65,17.26-19s-5.75-18.78-17.26-18.78H381.81Z"/><path class="cls-3" d="M519.87,139.51c0,35.19-28.93,51.27-65.31,51.27V173.69c26.91,0,48.22-10.66,48.22-34.18V89.42h-32V72.5h49.06Z"/><path class="cls-3" d="M546.27,173.69h55v17.09H529V72.5h72.08V89.59H546.27v33.34h53.64v17.26H546.27Z"/><path class="cls-3" d="M632.22,130.71h20c14.38,0,21.49-10.32,21.49-20.64,0-10.15-7.11-20.48-21.49-20.48H626V190.78H609V72.33h43.15c25.72,0,38.58,19,38.58,37.74,0,16.75-10.32,32.65-30.63,36.21l37.4,44.5H675.37l-43.15-51.95Z"/><path class="cls-3" d="M712.76,89.42a57.13,57.13,0,0,1,41-17.59c27.07,0,48.39,16.92,55.16,43.65H792c-6.26-17.76-20.81-26.73-38.24-26.73a40.24,40.24,0,0,0-29.1,12.69,43.71,43.71,0,0,0,0,60.57,40.24,40.24,0,0,0,29.1,12.69c17.94,0,33.16-10.32,39.26-28.25h16.75c-6.77,26.9-28.43,45.17-56,45.17a56.46,56.46,0,0,1-41-17.59,61.35,61.35,0,0,1,0-84.61Z"/><path class="cls-3" d="M835.26,72.5V190.78H818.35V72.5Zm3.22,54.83L879.77,72.5h21.49l-45.18,58.72L906,190.78H883.66L838.48,136Z"/><path class="cls-3" d="M923.59,173.69h55v17.09H906.33V72.5h72.08V89.59H923.59v33.34h53.64v17.26H923.59Z"/></g></g></svg>