<svg viewBox="0 0 221.78 578.21" xmlns="http://www.w3.org/2000/svg" shape-rendering="crispEdges"><g fill="#331707"><path d="m213.86 79.21h7.92v7.92h-7.92z"/><path d="m213.86 71.29h7.92v7.92h-7.92z"/><path d="m213.86 63.36h7.92v7.93h-7.92z"/><path d="m213.86 55.44h7.92v7.92h-7.92z"/><path d="m205.94 427.72h7.92v7.92h-7.92z"/><path d="m205.94 419.8h7.92v7.92h-7.92z"/><path d="m205.94 411.88h7.92v7.92h-7.92z"/><path d="m205.94 403.96h7.92v7.92h-7.92z"/><path d="m205.94 396.04h7.92v7.92h-7.92z"/><path d="m205.94 388.12h7.92v7.92h-7.92z"/><path d="m205.94 380.2h7.92v7.92h-7.92z"/><path d="m205.94 372.28h7.92v7.92h-7.92z"/><path d="m205.94 364.36h7.92v7.92h-7.92z"/><path d="m205.94 356.44h7.92v7.92h-7.92z"/><path d="m205.94 348.52h7.92v7.92h-7.92z"/><path d="m205.94 340.6h7.92v7.92h-7.92z"/><path d="m205.94 332.67h7.92v7.93h-7.92z"/><path d="m205.94 324.75h7.92v7.92h-7.92z"/><path d="m205.94 316.83h7.92v7.92h-7.92z"/><path d="m205.94 308.91h7.92v7.92h-7.92z"/><path d="m205.94 142.57h7.92v7.92h-7.92z"/><path d="m205.94 134.65h7.92v7.92h-7.92z"/><path d="m205.94 126.73h7.92v7.92h-7.92z"/><path d="m205.94 118.81h7.92v7.92h-7.92z"/><path d="m205.94 110.89h7.92v7.92h-7.92z"/><path d="m205.94 102.97h7.92v7.92h-7.92z"/><path d="m205.94 95.05h7.92v7.92h-7.92z"/><path d="m205.94 87.13h7.92v7.92h-7.92z"/><path d="m205.94 79.21h7.92v7.92h-7.92z"/></g><path d="m205.94 71.29h7.92v7.92h-7.92z" fill="#e0a920"/><path d="m205.94 63.36h7.92v7.93h-7.92z" fill="#e0a920"/><path d="m205.94 55.44h7.92v7.92h-7.92z" fill="#331707"/><path d="m205.94 47.52h7.92v7.92h-7.92z" fill="#331707"/><path d="m198.01 562.37h7.93v7.92h-7.93z" fill="#331707"/><path d="m198.01 554.45h7.93v7.92h-7.93z" fill="#331707"/><path d="m198.01 443.56h7.93v7.92h-7.93z" fill="#331707"/><path d="m198.01 435.64h7.93v7.92h-7.93z" fill="#331707"/><path d="m198.01 427.72h7.93v7.92h-7.93z" fill="#efcfaf"/><path d="m198.01 419.8h7.93v7.92h-7.93z" fill="#efcfaf"/><path d="m198.01 411.88h7.93v7.92h-7.93z" fill="#efcfaf"/><path d="m198.01 403.96h7.93v7.92h-7.93z" fill="#efcfaf"/><path d="m198.01 396.04h7.93v7.92h-7.93z" fill="#efcfaf"/><path d="m198.01 388.12h7.93v7.92h-7.93z" fill="#efcfaf"/><path d="m198.01 380.2h7.93v7.92h-7.93z" fill="#efcfaf"/><path d="m198.01 372.28h7.93v7.92h-7.93z" fill="#efcfaf"/><path d="m198.01 364.36h7.93v7.92h-7.93z" fill="#efcfaf"/><path d="m198.01 356.44h7.93v7.92h-7.93z" fill="#efcfaf"/><path d="m198.01 348.52h7.93v7.92h-7.93z" fill="#efcfaf"/><path d="m198.01 340.6h7.93v7.92h-7.93z" fill="#efcfaf"/><path d="m198.01 332.67h7.93v7.93h-7.93z" fill="#efcfaf"/><path d="m198.01 324.75h7.93v7.92h-7.93z" fill="#efcfaf"/><path d="m198.01 316.83h7.93v7.92h-7.93z" fill="#efcfaf"/><path d="m198.01 308.91h7.93v7.92h-7.93z" fill="#efcfaf"/><path d="m198.01 300.99h7.93v7.92h-7.93z" fill="#331707"/><path d="m198.01 174.25h7.93v7.92h-7.93z" fill="#331707"/><path d="m198.01 166.33h7.93v7.92h-7.93z" fill="#331707"/><path d="m198.01 158.41h7.93v7.92h-7.93z" fill="#331707"/><path d="m198.01 150.49h7.93v7.92h-7.93z" fill="#331707"/><path d="m198.01 142.57h7.93v7.92h-7.93z" fill="#d8af91"/><path d="m198.01 134.65h7.93v7.92h-7.93z" fill="#d8af91"/><path d="m198.01 126.73h7.93v7.92h-7.93z" fill="#d8af91"/><path d="m198.01 118.81h7.93v7.92h-7.93z" fill="#42210b"/><path d="m198.01 110.89h7.93v7.92h-7.93z" fill="#e0a920"/><path d="m198.01 102.97h7.93v7.92h-7.93z" fill="#e0a920"/><path d="m198.01 95.05h7.93v7.92h-7.93z" fill="#e0a920"/><path d="m198.01 87.13h7.93v7.92h-7.93z" fill="#e0a920"/><path d="m198.01 79.21h7.93v7.92h-7.93z" fill="#e0a920"/><path d="m198.01 71.29h7.93v7.92h-7.93z" fill="#e0a920"/><path d="m198.01 63.36h7.93v7.93h-7.93z" fill="#e0a920"/><path d="m198.01 55.44h7.93v7.92h-7.93z" fill="#e0a920"/><path d="m198.01 47.52h7.93v7.92h-7.93z" fill="#e0a920"/><path d="m198.01 39.6h7.93v7.92h-7.93z" fill="#331707"/><path d="m190.09 570.29h7.92v7.92h-7.92z" fill="#331707"/><path d="m190.09 562.37h7.92v7.92h-7.92z" fill="#efcfaf"/><path d="m190.09 554.45h7.92v7.92h-7.92z" fill="#efcfaf"/><path d="m190.09 546.53h7.92v7.92h-7.92z" fill="#331707"/><path d="m190.09 451.48h7.92v7.92h-7.92z" fill="#331707"/><path d="m190.09 443.56h7.92v7.92h-7.92z" fill="#efcfaf"/><path d="m190.09 435.64h7.92v7.92h-7.92z" fill="#efcfaf"/><path d="m190.09 427.72h7.92v7.92h-7.92z" fill="#efcfaf"/><path d="m190.09 419.8h7.92v7.92h-7.92z" fill="#efcfaf"/><path d="m190.09 411.88h7.92v7.92h-7.92z" fill="#efcfaf"/><path d="m190.09 403.96h7.92v7.92h-7.92z" fill="#efcfaf"/><path d="m190.09 396.04h7.92v7.92h-7.92z" fill="#efcfaf"/><path d="m190.09 388.12h7.92v7.92h-7.92z" fill="#efcfaf"/><path d="m190.09 380.2h7.92v7.92h-7.92z" fill="#efcfaf"/><path d="m190.09 372.28h7.92v7.92h-7.92z" fill="#efcfaf"/><path d="m190.09 364.36h7.92v7.92h-7.92z" fill="#efcfaf"/><path d="m190.09 356.44h7.92v7.92h-7.92z" fill="#efcfaf"/><path d="m190.09 348.52h7.92v7.92h-7.92z" fill="#efcfaf"/><path d="m190.09 340.6h7.92v7.92h-7.92z" fill="#efcfaf"/><path d="m190.09 332.67h7.92v7.93h-7.92z" fill="#efcfaf"/><path d="m190.09 324.75h7.92v7.92h-7.92z" fill="#efcfaf"/><path d="m190.09 316.83h7.92v7.92h-7.92z" fill="#efcfaf"/><path d="m190.09 308.91h7.92v7.92h-7.92z" fill="#efcfaf"/><path d="m190.09 300.99h7.92v7.92h-7.92z" fill="#efcfaf"/><path d="m190.09 293.07h7.92v7.92h-7.92z" fill="#331707"/><path d="m190.09 190.09h7.92v7.92h-7.92z" fill="#42210b"/><path d="m190.09 182.17h7.92v7.92h-7.92z" fill="#42210b"/><path d="m190.09 174.25h7.92v7.92h-7.92z" fill="#d8af91"/><path d="m190.09 166.33h7.92v7.92h-7.92z" fill="#d8af91"/><path d="m190.09 158.41h7.92v7.92h-7.92z" fill="#d8af91"/><path d="m190.09 150.49h7.92v7.92h-7.92z" fill="#d8af91"/><path d="m190.09 142.57h7.92v7.92h-7.92z" fill="#d8af91"/><path d="m190.09 134.65h7.92v7.92h-7.92z" fill="#d8af91"/><path d="m190.09 126.73h7.92v7.92h-7.92z" fill="#d8af91"/><path d="m190.09 118.81h7.92v7.92h-7.92z" fill="#d8af91"/><path d="m190.09 110.89h7.92v7.92h-7.92z" fill="#42210b"/><path d="m190.09 102.97h7.92v7.92h-7.92z" fill="#e0a920"/><path d="m190.09 95.05h7.92v7.92h-7.92z" fill="#e0a920"/><path d="m190.09 87.13h7.92v7.92h-7.92z" fill="#e0a920"/><path d="m190.09 79.21h7.92v7.92h-7.92z" fill="#e0a920"/><path d="m190.09 71.29h7.92v7.92h-7.92z" fill="#e0a920"/><path d="m190.09 63.36h7.92v7.93h-7.92z" fill="#e0a920"/><path d="m190.09 55.44h7.92v7.92h-7.92z" fill="#fcee21"/><path d="m190.09 47.52h7.92v7.92h-7.92z" fill="#e0a920"/><path d="m190.09 39.6h7.92v7.92h-7.92z" fill="#e0a920"/><path d="m190.09 31.68h7.92v7.92h-7.92z" fill="#331707"/><path d="m182.17 570.29h7.92v7.92h-7.92z" fill="#331707"/><path d="m182.17 562.37h7.92v7.92h-7.92z" fill="#efcfaf"/><path d="m182.17 554.45h7.92v7.92h-7.92z" fill="#efcfaf"/><path d="m182.17 546.53h7.92v7.92h-7.92z" fill="#331707"/><path d="m182.17 443.56h7.92v7.92h-7.92z" fill="#331707"/><path d="m182.17 435.64h7.92v7.92h-7.92z" fill="#331707"/><path d="m182.17 427.72h7.92v7.92h-7.92z" fill="#efcfaf"/><path d="m182.17 419.8h7.92v7.92h-7.92z" fill="#efcfaf"/><path d="m182.17 411.88h7.92v7.92h-7.92z" fill="#d8af91"/><path d="m182.17 403.96h7.92v7.92h-7.92z" fill="#efcfaf"/><path d="m182.17 396.04h7.92v7.92h-7.92z" fill="#efcfaf"/><path d="m182.17 388.12h7.92v7.92h-7.92z" fill="#efcfaf"/><path d="m182.17 380.2h7.92v7.92h-7.92z" fill="#efcfaf"/><path d="m182.17 372.28h7.92v7.92h-7.92z" fill="#efcfaf"/><path d="m182.17 364.36h7.92v7.92h-7.92z" fill="#efcfaf"/><path d="m182.17 356.44h7.92v7.92h-7.92z" fill="#efcfaf"/><path d="m182.17 348.52h7.92v7.92h-7.92z" fill="#efcfaf"/><path d="m182.17 340.6h7.92v7.92h-7.92z" fill="#efcfaf"/><path d="m182.17 332.67h7.92v7.93h-7.92z" fill="#efcfaf"/><path d="m182.17 324.75h7.92v7.92h-7.92z" fill="#efcfaf"/><path d="m182.17 316.83h7.92v7.92h-7.92z" fill="#efcfaf"/><path d="m182.17 308.91h7.92v7.92h-7.92z" fill="#efcfaf"/><path d="m182.17 300.99h7.92v7.92h-7.92z" fill="#efcfaf"/><path d="m182.17 293.07h7.92v7.92h-7.92z" fill="#efcfaf"/><path d="m182.17 285.15h7.92v7.92h-7.92z" fill="#331707"/><path d="m182.17 205.95h7.92v7.92h-7.92z" fill="#331707"/><path d="m182.17 198.01h7.92v7.93h-7.92z" fill="#331707"/><path d="m182.17 190.09h7.92v7.92h-7.92z" fill="#d8af91"/><path d="m182.17 182.17h7.92v7.92h-7.92z" fill="#efcfaf"/><path d="m182.17 174.25h7.92v7.92h-7.92z" fill="#efcfaf"/><path d="m182.17 166.33h7.92v7.92h-7.92z" fill="#efcfaf"/><path d="m182.17 158.41h7.92v7.92h-7.92z" fill="#efcfaf"/><path d="m182.17 150.49h7.92v7.92h-7.92z" fill="#efcfaf"/><path d="m182.17 142.57h7.92v7.92h-7.92z" fill="#efcfaf"/><path d="m182.17 134.65h7.92v7.92h-7.92z" fill="#efcfaf"/><path d="m182.17 126.73h7.92v7.92h-7.92z" fill="#42210b"/><path d="m182.17 118.81h7.92v7.92h-7.92z" fill="#42210b"/><path d="m182.17 110.89h7.92v7.92h-7.92z" fill="#42210b"/><path d="m182.17 102.97h7.92v7.92h-7.92z" fill="#e0a920"/><path d="m182.17 95.05h7.92v7.92h-7.92z" fill="#e0a920"/><path d="m182.17 87.13h7.92v7.92h-7.92z" fill="#fcee21"/><path d="m182.17 79.21h7.92v7.92h-7.92z" fill="#fcee21"/><path d="m182.17 71.29h7.92v7.92h-7.92z" fill="#fcee21"/><path d="m182.17 63.36h7.92v7.93h-7.92z" fill="#fcee21"/><path d="m182.17 55.44h7.92v7.92h-7.92z" fill="#fcee21"/><path d="m182.17 47.52h7.92v7.92h-7.92z" fill="#fcee21"/><path d="m182.17 39.6h7.92v7.92h-7.92z" fill="#fcee21"/><path d="m182.17 31.68h7.92v7.92h-7.92z" fill="#331707"/><path d="m182.17 23.76h7.92v7.92h-7.92z" fill="#331707"/><path d="m174.25 570.29h7.92v7.92h-7.92z" fill="#331707"/><path d="m174.25 562.37h7.92v7.92h-7.92z" fill="#efcfaf"/><path d="m174.25 554.45h7.92v7.92h-7.92z" fill="#efcfaf"/><path d="m174.25 546.53h7.92v7.92h-7.92z" fill="#efcfaf"/><path d="m174.25 538.61h7.92v7.92h-7.92z" fill="#331707"/><path d="m174.25 451.48h7.92v7.92h-7.92z" fill="#331707"/><path d="m174.25 443.56h7.92v7.92h-7.92z" fill="#efcfaf"/><path d="m174.25 435.64h7.92v7.92h-7.92z" fill="#efcfaf"/><path d="m174.25 427.72h7.92v7.92h-7.92z" fill="#efcfaf"/><path d="m174.25 419.8h7.92v7.92h-7.92z" fill="#efcfaf"/><path d="m174.25 411.88h7.92v7.92h-7.92z" fill="#d8af91"/><path d="m174.25 403.96h7.92v7.92h-7.92z" fill="#d8af91"/><path d="m174.25 396.04h7.92v7.92h-7.92z" fill="#efcfaf"/><path d="m174.25 388.12h7.92v7.92h-7.92z" fill="#efcfaf"/><path d="m174.25 380.2h7.92v7.92h-7.92z" fill="#efcfaf"/><path d="m174.25 372.28h7.92v7.92h-7.92z" fill="#efcfaf"/><path d="m174.25 364.36h7.92v7.92h-7.92z" fill="#efcfaf"/><path d="m174.25 356.44h7.92v7.92h-7.92z" fill="#efcfaf"/><path d="m174.25 348.52h7.92v7.92h-7.92z" fill="#efcfaf"/><path d="m174.25 340.6h7.92v7.92h-7.92z" fill="#efcfaf"/><path d="m174.25 332.67h7.92v7.93h-7.92z" fill="#efcfaf"/><path d="m174.25 324.75h7.92v7.92h-7.92z" fill="#efcfaf"/><path d="m174.25 316.83h7.92v7.92h-7.92z" fill="#efcfaf"/><path d="m174.25 308.91h7.92v7.92h-7.92z" fill="#efcfaf"/><path d="m174.25 300.99h7.92v7.92h-7.92z" fill="#efcfaf"/><path d="m174.25 293.07h7.92v7.92h-7.92z" fill="#efcfaf"/><path d="m174.25 285.15h7.92v7.92h-7.92z" fill="#efcfaf"/><path d="m174.25 277.23h7.92v7.92h-7.92z" fill="#331707"/><path d="m174.25 213.87h7.92v7.92h-7.92z" fill="#331707"/><path d="m174.25 205.95h7.92v7.92h-7.92z" fill="#d8af91"/><path d="m174.25 198.01h7.92v7.93h-7.92z" fill="#efcfaf"/><path d="m174.25 190.09h7.92v7.92h-7.92z" fill="#efcfaf"/><path d="m174.25 182.17h7.92v7.92h-7.92z" fill="#efcfaf"/><path d="m174.25 174.25h7.92v7.92h-7.92z" fill="#efcfaf"/><path d="m174.25 166.33h7.92v7.92h-7.92z" fill="#efcfaf"/><path d="m174.25 158.41h7.92v7.92h-7.92z" fill="#efcfaf"/><path d="m174.25 150.49h7.92v7.92h-7.92z" fill="#efcfaf"/><path d="m174.25 142.57h7.92v7.92h-7.92z" fill="#efcfaf"/><path d="m174.25 134.65h7.92v7.92h-7.92z" fill="#efcfaf"/><path d="m174.25 126.73h7.92v7.92h-7.92z" fill="#42210b"/><path d="m174.25 118.81h7.92v7.92h-7.92z" fill="#e0a920"/><path d="m174.25 110.89h7.92v7.92h-7.92z" fill="#e0a920"/><path d="m174.25 102.97h7.92v7.92h-7.92z" fill="#e0a920"/><path d="m174.25 95.05h7.92v7.92h-7.92z" fill="#fcee21"/><path d="m174.25 87.13h7.92v7.92h-7.92z" fill="#fcee21"/><path d="m174.25 79.21h7.92v7.92h-7.92z" fill="#fcee21"/><path d="m174.25 71.29h7.92v7.92h-7.92z" fill="#fcee21"/><path d="m174.25 63.36h7.92v7.93h-7.92z" fill="#fcee21"/><path d="m174.25 55.44h7.92v7.92h-7.92z" fill="#fcee21"/><path d="m174.25 47.52h7.92v7.92h-7.92z" fill="#fcee21"/><path d="m174.25 39.6h7.92v7.92h-7.92z" fill="#fcee21"/><path d="m174.25 31.68h7.92v7.92h-7.92z" fill="#e0a920"/><path d="m174.25 23.76h7.92v7.92h-7.92z" fill="#331707"/><path d="m174.25 15.84h7.92v7.92h-7.92z" fill="#331707"/><path d="m166.33 570.29h7.92v7.92h-7.92z" fill="#331707"/><path d="m166.33 562.37h7.92v7.92h-7.92z" fill="#efcfaf"/><path d="m166.33 554.45h7.92v7.92h-7.92z" fill="#efcfaf"/><path d="m166.33 546.53h7.92v7.92h-7.92z" fill="#efcfaf"/><path d="m166.33 538.61h7.92v7.92h-7.92z" fill="#d8af91"/><path d="m166.33 530.69h7.92v7.92h-7.92z" fill="#331707"/><path d="m166.33 522.77h7.92v7.92h-7.92z" fill="#331707"/><path d="m166.33 514.85h7.92v7.92h-7.92z" fill="#331707"/><path d="m166.33 506.93h7.92v7.92h-7.92z" fill="#331707"/><path d="m166.33 499.01h7.92v7.92h-7.92z" fill="#331707"/><path d="m166.33 491.09h7.92v7.92h-7.92z" fill="#331707"/><path d="m166.33 483.17h7.92v7.92h-7.92z" fill="#331707"/><path d="m166.33 475.25h7.92v7.92h-7.92z" fill="#331707"/><path d="m166.33 467.32h7.92v7.93h-7.92z" fill="#331707"/><path d="m166.33 459.4h7.92v7.92h-7.92z" fill="#331707"/><path d="m166.33 451.48h7.92v7.92h-7.92z" fill="#331707"/><path d="m166.33 443.56h7.92v7.92h-7.92z" fill="#331707"/><path d="m166.33 435.64h7.92v7.92h-7.92z" fill="#331707"/><path d="m166.33 427.72h7.92v7.92h-7.92z" fill="#efcfaf"/><path d="m166.33 419.8h7.92v7.92h-7.92z" fill="#efcfaf"/><path d="m166.33 411.88h7.92v7.92h-7.92z" fill="#331707"/><path d="m166.33 403.96h7.92v7.92h-7.92z" fill="#331707"/><path d="m166.33 396.04h7.92v7.92h-7.92z" fill="#331707"/><path d="m166.33 388.12h7.92v7.92h-7.92z" fill="#331707"/><path d="m166.33 380.2h7.92v7.92h-7.92z" fill="#331707"/><path d="m166.33 372.28h7.92v7.92h-7.92z" fill="#331707"/><path d="m166.33 364.36h7.92v7.92h-7.92z" fill="#331707"/><path d="m166.33 356.44h7.92v7.92h-7.92z" fill="#331707"/><path d="m166.33 348.52h7.92v7.92h-7.92z" fill="#331707"/><path d="m166.33 340.6h7.92v7.92h-7.92z" fill="#331707"/><path d="m166.33 332.67h7.92v7.93h-7.92z" fill="#331707"/><path d="m166.33 324.75h7.92v7.92h-7.92z" fill="#331707"/><path d="m166.33 316.83h7.92v7.92h-7.92z" fill="#efcfaf"/><path d="m166.33 308.91h7.92v7.92h-7.92z" fill="#efcfaf"/><path d="m166.33 300.99h7.92v7.92h-7.92z" fill="#efcfaf"/><path d="m166.33 293.07h7.92v7.92h-7.92z" fill="#efcfaf"/><path d="m166.33 285.15h7.92v7.92h-7.92z" fill="#efcfaf"/><path d="m166.33 277.23h7.92v7.92h-7.92z" fill="#efcfaf"/><path d="m166.33 269.31h7.92v7.92h-7.92z" fill="#331707"/><path d="m166.33 221.79h7.92v7.92h-7.92z" fill="#331707"/><path d="m166.33 213.87h7.92v7.92h-7.92z" fill="#d8af91"/><path d="m166.33 205.95h7.92v7.92h-7.92z" fill="#efcfaf"/><path d="m166.33 198.01h7.92v7.93h-7.92z" fill="#efcfaf"/><path d="m166.33 190.09h7.92v7.92h-7.92z" fill="#efcfaf"/><path d="m166.33 182.17h7.92v7.92h-7.92z" fill="#efcfaf"/><path d="m166.33 174.25h7.92v7.92h-7.92z" fill="#efcfaf"/><path d="m166.33 166.33h7.92v7.92h-7.92z" fill="#efcfaf"/><path d="m166.33 158.41h7.92v7.92h-7.92z" fill="#efcfaf"/><path d="m166.33 150.49h7.92v7.92h-7.92z" fill="#efcfaf"/><path d="m166.33 142.57h7.92v7.92h-7.92z" fill="#efcfaf"/><path d="m166.33 134.65h7.92v7.92h-7.92z" fill="#d8af91"/><path d="m166.33 126.73h7.92v7.92h-7.92z" fill="#efcfaf"/><path d="m166.33 118.81h7.92v7.92h-7.92z" fill="#42210b"/><path d="m166.33 110.89h7.92v7.92h-7.92z" fill="#42210b"/><path d="m166.33 102.97h7.92v7.92h-7.92z" fill="#e0a920"/><path d="m166.33 95.05h7.92v7.92h-7.92z" fill="#e0a920"/><path d="m166.33 87.13h7.92v7.92h-7.92z" fill="#fcee21"/><path d="m166.33 79.21h7.92v7.92h-7.92z" fill="#fcee21"/><path d="m166.33 71.29h7.92v7.92h-7.92z" fill="#fcee21"/><path d="m166.33 63.36h7.92v7.93h-7.92z" fill="#fcee21"/><path d="m166.33 55.44h7.92v7.92h-7.92z" fill="#fcee21"/><path d="m166.33 47.52h7.92v7.92h-7.92z" fill="#fcee21"/><path d="m166.33 39.6h7.92v7.92h-7.92z" fill="#fcee21"/><path d="m166.33 31.68h7.92v7.92h-7.92z" fill="#fcee21"/><path d="m166.33 23.76h7.92v7.92h-7.92z" fill="#e0a920"/><path d="m166.33 15.84h7.92v7.92h-7.92z" fill="#331707"/><path d="m158.41 570.29h7.92v7.92h-7.92z" fill="#331707"/><path d="m158.41 562.37h7.92v7.92h-7.92z" fill="#efcfaf"/><path d="m158.41 554.45h7.92v7.92h-7.92z" fill="#efcfaf"/><path d="m158.41 546.53h7.92v7.92h-7.92z" fill="#efcfaf"/><path d="m158.41 538.61h7.92v7.92h-7.92z" fill="#d8af91"/><path d="m158.41 530.69h7.92v7.92h-7.92z" fill="#efcfaf"/><path d="m158.41 522.77h7.92v7.92h-7.92z" fill="#efcfaf"/><path d="m158.41 514.85h7.92v7.92h-7.92z" fill="#efcfaf"/><path d="m158.41 506.93h7.92v7.92h-7.92z" fill="#efcfaf"/><path d="m158.41 499.01h7.92v7.92h-7.92z" fill="#efcfaf"/><path d="m158.41 491.09h7.92v7.92h-7.92z" fill="#efcfaf"/><path d="m158.41 483.17h7.92v7.92h-7.92z" fill="#efcfaf"/><path d="m158.41 475.25h7.92v7.92h-7.92z" fill="#efcfaf"/><path d="m158.41 467.32h7.92v7.93h-7.92z" fill="#efcfaf"/><path d="m158.41 459.4h7.92v7.92h-7.92z" fill="#d8af91"/><path d="m158.41 451.48h7.92v7.92h-7.92z" fill="#d8af91"/><path d="m158.41 443.56h7.92v7.92h-7.92z" fill="#d8af91"/><path d="m158.41 435.64h7.92v7.92h-7.92z" fill="#d8af91"/><path d="m158.41 427.72h7.92v7.92h-7.92z" fill="#331707"/><path d="m158.41 419.8h7.92v7.92h-7.92z" fill="#331707"/><path d="m158.41 411.88h7.92v7.92h-7.92z" fill="#d8af91"/><path d="m158.41 403.96h7.92v7.92h-7.92z" fill="#d8af91"/><path d="m158.41 396.04h7.92v7.92h-7.92z" fill="#d8af91"/><path d="m158.41 388.12h7.92v7.92h-7.92z" fill="#d8af91"/><path d="m158.41 380.2h7.92v7.92h-7.92z" fill="#efcfaf"/><path d="m158.41 372.28h7.92v7.92h-7.92z" fill="#efcfaf"/><path d="m158.41 364.36h7.92v7.92h-7.92z" fill="#efcfaf"/><path d="m158.41 356.44h7.92v7.92h-7.92z" fill="#efcfaf"/><path d="m158.41 348.52h7.92v7.92h-7.92z" fill="#d8af91"/><path d="m158.41 340.6h7.92v7.92h-7.92z" fill="#d8af91"/><path d="m158.41 332.67h7.92v7.93h-7.92z" fill="#d8af91"/><path d="m158.41 324.75h7.92v7.92h-7.92z" fill="#331707"/><path d="m158.41 316.83h7.92v7.92h-7.92z" fill="#331707"/><path d="m158.41 308.91h7.92v7.92h-7.92z" fill="#331707"/><path d="m158.41 300.99h7.92v7.92h-7.92z" fill="#efcfaf"/><path d="m158.41 293.07h7.92v7.92h-7.92z" fill="#efcfaf"/><path d="m158.41 285.15h7.92v7.92h-7.92z" fill="#efcfaf"/><path d="m158.41 277.23h7.92v7.92h-7.92z" fill="#efcfaf"/><path d="m158.41 269.31h7.92v7.92h-7.92z" fill="#331707"/><path d="m158.41 229.71h7.92v7.92h-7.92z" fill="#331707"/><path d="m158.41 221.79h7.92v7.92h-7.92z" fill="#331707"/><path d="m158.41 213.87h7.92v7.92h-7.92z" fill="#efcfaf"/><path d="m158.41 205.95h7.92v7.92h-7.92z" fill="#efcfaf"/><path d="m158.41 198.01h7.92v7.93h-7.92z" fill="#efcfaf"/><path d="m158.41 190.09h7.92v7.92h-7.92z" fill="#efcfaf"/><path d="m158.41 182.17h7.92v7.92h-7.92z" fill="#efcfaf"/><path d="m158.41 174.25h7.92v7.92h-7.92z" fill="#efcfaf"/><path d="m158.41 166.33h7.92v7.92h-7.92z" fill="#efcfaf"/><path d="m158.41 158.41h7.92v7.92h-7.92z" fill="#efcfaf"/><path d="m158.41 150.49h7.92v7.92h-7.92z" fill="#efcfaf"/><path d="m158.41 142.57h7.92v7.92h-7.92z" fill="#efcfaf"/><path d="m158.41 134.65h7.92v7.92h-7.92z" fill="#fff"/><path d="m158.41 126.73h7.92v7.92h-7.92z" fill="#fff"/><path d="m158.41 118.81h7.92v7.92h-7.92z" fill="#bc8b69"/><path d="m158.41 110.89h7.92v7.92h-7.92z" fill="#42210b"/><path d="m158.41 102.97h7.92v7.92h-7.92z" fill="#e0a920"/><path d="m158.41 95.05h7.92v7.92h-7.92z" fill="#e0a920"/><path d="m158.41 87.13h7.92v7.92h-7.92z" fill="#fcee21"/><path d="m158.41 79.21h7.92v7.92h-7.92z" fill="#fcee21"/><path d="m158.41 71.29h7.92v7.92h-7.92z" fill="#fcee21"/><path d="m158.41 63.36h7.92v7.93h-7.92z" fill="#fcee21"/><path d="m158.41 55.44h7.92v7.92h-7.92z" fill="#fcee21"/><path d="m158.41 47.52h7.92v7.92h-7.92z" fill="#fcee21"/><path d="m158.41 39.6h7.92v7.92h-7.92z" fill="#fcee21"/><path d="m158.41 31.68h7.92v7.92h-7.92z" fill="#fcee21"/><path d="m158.41 23.76h7.92v7.92h-7.92z" fill="#e0a920"/><path d="m158.41 15.84h7.92v7.92h-7.92z" fill="#331707"/><path d="m150.49 570.29h7.92v7.92h-7.92z" fill="#331707"/><path d="m150.49 562.37h7.92v7.92h-7.92z" fill="#efcfaf"/><path d="m150.49 554.45h7.92v7.92h-7.92z" fill="#efcfaf"/><path d="m150.49 546.53h7.92v7.92h-7.92z" fill="#efcfaf"/><path d="m150.49 538.61h7.92v7.92h-7.92z" fill="#efcfaf"/><path d="m150.49 530.69h7.92v7.92h-7.92z" fill="#efcfaf"/><path d="m150.49 522.77h7.92v7.92h-7.92z" fill="#efcfaf"/><path d="m150.49 514.85h7.92v7.92h-7.92z" fill="#efcfaf"/><path d="m150.49 506.93h7.92v7.92h-7.92z" fill="#efcfaf"/><path d="m150.49 499.01h7.92v7.92h-7.92z" fill="#efcfaf"/><path d="m150.49 491.09h7.92v7.92h-7.92z" fill="#efcfaf"/><path d="m150.49 483.17h7.92v7.92h-7.92z" fill="#efcfaf"/><path d="m150.49 475.25h7.92v7.92h-7.92z" fill="#efcfaf"/><path d="m150.49 467.32h7.92v7.93h-7.92z" fill="#efcfaf"/><path d="m150.49 459.4h7.92v7.92h-7.92z" fill="#efcfaf"/><path d="m150.49 451.48h7.92v7.92h-7.92z" fill="#efcfaf"/><path d="m150.49 443.56h7.92v7.92h-7.92z" fill="#efcfaf"/><path d="m150.49 435.64h7.92v7.92h-7.92z" fill="#efcfaf"/><path d="m150.49 427.72h7.92v7.92h-7.92z" fill="#d8af91"/><path d="m150.49 419.8h7.92v7.92h-7.92z" fill="#d8af91"/><path d="m150.49 411.88h7.92v7.92h-7.92z" fill="#efcfaf"/><path d="m150.49 403.96h7.92v7.92h-7.92z" fill="#efcfaf"/><path d="m150.49 396.04h7.92v7.92h-7.92z" fill="#efcfaf"/><path d="m150.49 388.12h7.92v7.92h-7.92z" fill="#efcfaf"/><path d="m150.49 380.2h7.92v7.92h-7.92z" fill="#efcfaf"/><path d="m150.49 372.28h7.92v7.92h-7.92z" fill="#efcfaf"/><path d="m150.49 364.36h7.92v7.92h-7.92z" fill="#efcfaf"/><path d="m150.49 356.44h7.92v7.92h-7.92z" fill="#efcfaf"/><path d="m150.49 348.52h7.92v7.92h-7.92z" fill="#efcfaf"/><path d="m150.49 340.6h7.92v7.92h-7.92z" fill="#efcfaf"/><path d="m150.49 332.67h7.92v7.93h-7.92z" fill="#bc8b69"/><path d="m150.49 324.75h7.92v7.92h-7.92z" fill="#d8af91"/><path d="m150.49 316.83h7.92v7.92h-7.92z" fill="#d8af91"/><path d="m150.49 308.91h7.92v7.92h-7.92z" fill="#efcfaf"/><path d="m150.49 300.99h7.92v7.92h-7.92z" fill="#efcfaf"/><path d="m150.49 293.07h7.92v7.92h-7.92z" fill="#efcfaf"/><path d="m150.49 285.15h7.92v7.92h-7.92z" fill="#efcfaf"/><path d="m150.49 277.23h7.92v7.92h-7.92z" fill="#efcfaf"/><path d="m150.49 269.31h7.92v7.92h-7.92z" fill="#331707"/><path d="m150.49 229.71h7.92v7.92h-7.92z" fill="#331707"/><path d="m150.49 221.79h7.92v7.92h-7.92z" fill="#d8af91"/><path d="m150.49 213.87h7.92v7.92h-7.92z" fill="#efcfaf"/><path d="m150.49 205.95h7.92v7.92h-7.92z" fill="#efcfaf"/><path d="m150.49 198.01h7.92v7.93h-7.92z" fill="#efcfaf"/><path d="m150.49 190.09h7.92v7.92h-7.92z" fill="#efcfaf"/><path d="m150.49 182.17h7.92v7.92h-7.92z" fill="#efcfaf"/><path d="m150.49 174.25h7.92v7.92h-7.92z" fill="#efcfaf"/><path d="m150.49 166.33h7.92v7.92h-7.92z" fill="#efcfaf"/><path d="m150.49 158.41h7.92v7.92h-7.92z" fill="#efcfaf"/><path d="m150.49 150.49h7.92v7.92h-7.92z" fill="#efcfaf"/><path d="m150.49 142.57h7.92v7.92h-7.92z" fill="#efcfaf"/><path d="m150.49 134.65h7.92v7.92h-7.92z" fill="#0071bc"/><path d="m150.49 126.73h7.92v7.92h-7.92z" fill="#58cff9"/><path d="m150.49 118.81h7.92v7.92h-7.92z" fill="#42210b"/><path d="m150.49 110.89h7.92v7.92h-7.92z" fill="#e0a920"/><path d="m150.49 102.97h7.92v7.92h-7.92z" fill="#e0a920"/><path d="m150.49 95.05h7.92v7.92h-7.92z" fill="#e0a920"/><path d="m150.49 87.13h7.92v7.92h-7.92z" fill="#e0a920"/><path d="m150.49 79.21h7.92v7.92h-7.92z" fill="#fcee21"/><path d="m150.49 71.29h7.92v7.92h-7.92z" fill="#fcee21"/><path d="m150.49 63.36h7.92v7.93h-7.92z" fill="#fcee21"/><path d="m150.49 55.44h7.92v7.92h-7.92z" fill="#fcee21"/><path d="m150.49 47.52h7.92v7.92h-7.92z" fill="#fcee21"/><path d="m150.49 39.6h7.92v7.92h-7.92z" fill="#fcee21"/><path d="m150.49 31.68h7.92v7.92h-7.92z" fill="#fcee21"/><path d="m150.49 23.76h7.92v7.92h-7.92z" fill="#e0a920"/><path d="m150.49 15.84h7.92v7.92h-7.92z" fill="#331707"/><path d="m150.49 7.92h7.92v7.92h-7.92z" fill="#331707"/><path d="m142.57 570.29h7.92v7.92h-7.92z" fill="#331707"/><path d="m142.57 562.37h7.92v7.92h-7.92z" fill="#efcfaf"/><path d="m142.57 554.45h7.92v7.92h-7.92z" fill="#efcfaf"/><path d="m142.57 546.53h7.92v7.92h-7.92z" fill="#efcfaf"/><path d="m142.57 538.61h7.92v7.92h-7.92z" fill="#efcfaf"/><path d="m142.57 530.69h7.92v7.92h-7.92z" fill="#efcfaf"/><path d="m142.57 522.77h7.92v7.92h-7.92z" fill="#efcfaf"/><path d="m142.57 514.85h7.92v7.92h-7.92z" fill="#efcfaf"/><path d="m142.57 506.93h7.92v7.92h-7.92z" fill="#efcfaf"/><path d="m142.57 499.01h7.92v7.92h-7.92z" fill="#efcfaf"/><path d="m142.57 491.09h7.92v7.92h-7.92z" fill="#efcfaf"/><path d="m142.57 483.17h7.92v7.92h-7.92z" fill="#efcfaf"/><path d="m142.57 475.25h7.92v7.92h-7.92z" fill="#efcfaf"/><path d="m142.57 467.32h7.92v7.93h-7.92z" fill="#efcfaf"/><path d="m142.57 459.4h7.92v7.92h-7.92z" fill="#efcfaf"/><path d="m142.57 451.48h7.92v7.92h-7.92z" fill="#efcfaf"/><path d="m142.57 443.56h7.92v7.92h-7.92z" fill="#efcfaf"/><path d="m142.57 435.64h7.92v7.92h-7.92z" fill="#efcfaf"/><path d="m142.57 427.72h7.92v7.92h-7.92z" fill="#efcfaf"/><path d="m142.57 419.8h7.92v7.92h-7.92z" fill="#efcfaf"/><path d="m142.57 411.88h7.92v7.92h-7.92z" fill="#efcfaf"/><path d="m142.57 403.96h7.92v7.92h-7.92z" fill="#efcfaf"/><path d="m142.57 396.04h7.92v7.92h-7.92z" fill="#efcfaf"/><path d="m142.57 388.12h7.92v7.92h-7.92z" fill="#efcfaf"/><path d="m142.57 380.2h7.92v7.92h-7.92z" fill="#efcfaf"/><path d="m142.57 372.28h7.92v7.92h-7.92z" fill="#efcfaf"/><path d="m142.57 364.36h7.92v7.92h-7.92z" fill="#efcfaf"/><path d="m142.57 356.44h7.92v7.92h-7.92z" fill="#efcfaf"/><path d="m142.57 348.52h7.92v7.92h-7.92z" fill="#efcfaf"/><path d="m142.57 340.6h7.92v7.92h-7.92z" fill="#efcfaf"/><path d="m142.57 332.67h7.92v7.93h-7.92z" fill="#bc8b69"/><path d="m142.57 324.75h7.92v7.92h-7.92z" fill="#efcfaf"/><path d="m142.57 316.83h7.92v7.92h-7.92z" fill="#efcfaf"/><path d="m142.57 308.91h7.92v7.92h-7.92z" fill="#efcfaf"/><path d="m142.57 300.99h7.92v7.92h-7.92z" fill="#efcfaf"/><path d="m142.57 293.07h7.92v7.92h-7.92z" fill="#efcfaf"/><path d="m142.57 285.15h7.92v7.92h-7.92z" fill="#efcfaf"/><path d="m142.57 277.23h7.92v7.92h-7.92z" fill="#efcfaf"/><path d="m142.57 269.31h7.92v7.92h-7.92z" fill="#efcfaf"/><path d="m142.57 261.39h7.92v7.92h-7.92z" fill="#331707"/><path d="m142.57 229.71h7.92v7.92h-7.92z" fill="#331707"/><path d="m142.57 221.79h7.92v7.92h-7.92z" fill="#d8af91"/><path d="m142.57 213.87h7.92v7.92h-7.92z" fill="#efcfaf"/><path d="m142.57 205.95h7.92v7.92h-7.92z" fill="#efcfaf"/><path d="m142.57 198.01h7.92v7.93h-7.92z" fill="#efcfaf"/><path d="m142.57 190.09h7.92v7.92h-7.92z" fill="#d8af91"/><path d="m142.57 182.17h7.92v7.92h-7.92z" fill="#d8af91"/><path d="m142.57 174.25h7.92v7.92h-7.92z" fill="#efcfaf"/><path d="m142.57 166.33h7.92v7.92h-7.92z" fill="#efcfaf"/><path d="m142.57 158.41h7.92v7.92h-7.92z" fill="#efcfaf"/><path d="m142.57 150.49h7.92v7.92h-7.92z" fill="#efcfaf"/><path d="m142.57 142.57h7.92v7.92h-7.92z" fill="#efcfaf"/><path d="m142.57 134.65h7.92v7.92h-7.92z" fill="#0071bc"/><path d="m142.57 126.73h7.92v7.92h-7.92z" fill="#0071bc"/><path d="m142.57 118.81h7.92v7.92h-7.92z" fill="#42210b"/><path d="m142.57 110.89h7.92v7.92h-7.92z" fill="#42210b"/><path d="m142.57 102.97h7.92v7.92h-7.92z" fill="#42210b"/><path d="m142.57 95.05h7.92v7.92h-7.92z" fill="#42210b"/><path d="m142.57 87.13h7.92v7.92h-7.92z" fill="#e0a920"/><path d="m142.57 79.21h7.92v7.92h-7.92z" fill="#fcee21"/><path d="m142.57 71.29h7.92v7.92h-7.92z" fill="#fcee21"/><path d="m142.57 63.36h7.92v7.93h-7.92z" fill="#fcee21"/><path d="m142.57 55.44h7.92v7.92h-7.92z" fill="#fcee21"/><path d="m142.57 47.52h7.92v7.92h-7.92z" fill="#fcee21"/><path d="m142.57 39.6h7.92v7.92h-7.92z" fill="#fcee21"/><path d="m142.57 31.68h7.92v7.92h-7.92z" fill="#fcee21"/><path d="m142.57 23.76h7.92v7.92h-7.92z" fill="#e0a920"/><path d="m142.57 15.84h7.92v7.92h-7.92z" fill="#e0a920"/><path d="m142.57 7.92h7.92v7.92h-7.92z" fill="#331707"/><path d="m134.65 570.29h7.92v7.92h-7.92z" fill="#331707"/><path d="m134.65 562.37h7.92v7.92h-7.92z" fill="#efcfaf"/><path d="m134.65 554.45h7.92v7.92h-7.92z" fill="#efcfaf"/><path d="m134.65 546.53h7.92v7.92h-7.92z" fill="#efcfaf"/><path d="m134.65 538.61h7.92v7.92h-7.92z" fill="#efcfaf"/><path d="m134.65 530.69h7.92v7.92h-7.92z" fill="#efcfaf"/><path d="m134.65 522.77h7.92v7.92h-7.92z" fill="#efcfaf"/><path d="m134.65 514.85h7.92v7.92h-7.92z" fill="#efcfaf"/><path d="m134.65 506.93h7.92v7.92h-7.92z" fill="#efcfaf"/><path d="m134.65 499.01h7.92v7.92h-7.92z" fill="#efcfaf"/><path d="m134.65 491.09h7.92v7.92h-7.92z" fill="#efcfaf"/><path d="m134.65 483.17h7.92v7.92h-7.92z" fill="#efcfaf"/><path d="m134.65 475.25h7.92v7.92h-7.92z" fill="#efcfaf"/><path d="m134.65 467.32h7.92v7.93h-7.92z" fill="#efcfaf"/><path d="m134.65 459.4h7.92v7.92h-7.92z" fill="#efcfaf"/><path d="m134.65 451.48h7.92v7.92h-7.92z" fill="#efcfaf"/><path d="m134.65 443.56h7.92v7.92h-7.92z" fill="#efcfaf"/><path d="m134.65 435.64h7.92v7.92h-7.92z" fill="#efcfaf"/><path d="m134.65 427.72h7.92v7.92h-7.92z" fill="#efcfaf"/><path d="m134.65 419.8h7.92v7.92h-7.92z" fill="#efcfaf"/><path d="m134.65 411.88h7.92v7.92h-7.92z" fill="#efcfaf"/><path d="m134.65 403.96h7.92v7.92h-7.92z" fill="#efcfaf"/><path d="m134.65 396.04h7.92v7.92h-7.92z" fill="#efcfaf"/><path d="m134.65 388.12h7.92v7.92h-7.92z" fill="#efcfaf"/><path d="m134.65 380.2h7.92v7.92h-7.92z" fill="#efcfaf"/><path d="m134.65 372.28h7.92v7.92h-7.92z" fill="#efcfaf"/><path d="m134.65 364.36h7.92v7.92h-7.92z" fill="#efcfaf"/><path d="m134.65 356.44h7.92v7.92h-7.92z" fill="#efcfaf"/><path d="m134.65 348.52h7.92v7.92h-7.92z" fill="#efcfaf"/><path d="m134.65 340.6h7.92v7.92h-7.92z" fill="#efcfaf"/><path d="m134.65 332.67h7.92v7.93h-7.92z" fill="#bc8b69"/><path d="m134.65 324.75h7.92v7.92h-7.92z" fill="#efcfaf"/><path d="m134.65 316.83h7.92v7.92h-7.92z" fill="#efcfaf"/><path d="m134.65 308.91h7.92v7.92h-7.92z" fill="#efcfaf"/><path d="m134.65 300.99h7.92v7.92h-7.92z" fill="#efcfaf"/><path d="m134.65 293.07h7.92v7.92h-7.92z" fill="#efcfaf"/><path d="m134.65 285.15h7.92v7.92h-7.92z" fill="#efcfaf"/><path d="m134.65 277.23h7.92v7.92h-7.92z" fill="#efcfaf"/><path d="m134.65 269.31h7.92v7.92h-7.92z" fill="#efcfaf"/><path d="m134.65 261.39h7.92v7.92h-7.92z" fill="#efcfaf"/><path d="m134.65 253.47h7.92v7.92h-7.92z" fill="#331707"/><path d="m134.65 245.55h7.92v7.92h-7.92z" fill="#331707"/><path d="m134.65 237.63h7.92v7.92h-7.92z" fill="#331707"/><path d="m134.65 229.71h7.92v7.92h-7.92z" fill="#d8af91"/><path d="m134.65 221.79h7.92v7.92h-7.92z" fill="#efcfaf"/><path d="m134.65 213.87h7.92v7.92h-7.92z" fill="#efcfaf"/><path d="m134.65 205.95h7.92v7.92h-7.92z" fill="#efcfaf"/><path d="m134.65 198.01h7.92v7.93h-7.92z" fill="#d8af91"/><path d="m134.65 190.09h7.92v7.92h-7.92z" fill="#bc8b69"/><path d="m134.65 182.17h7.92v7.92h-7.92z" fill="#efcfaf"/><path d="m134.65 174.25h7.92v7.92h-7.92z" fill="#efcfaf"/><path d="m134.65 166.33h7.92v7.92h-7.92z" fill="#efcfaf"/><path d="m134.65 158.41h7.92v7.92h-7.92z" fill="#efcfaf"/><path d="m134.65 150.49h7.92v7.92h-7.92z" fill="#efcfaf"/><path d="m134.65 142.57h7.92v7.92h-7.92z" fill="#efcfaf"/><path d="m134.65 134.65h7.92v7.92h-7.92z" fill="#fff"/><path d="m134.65 126.73h7.92v7.92h-7.92z" fill="#fff"/><path d="m134.65 118.81h7.92v7.92h-7.92z" fill="#bc8b69"/><path d="m134.65 110.89h7.92v7.92h-7.92z" fill="#efcfaf"/><path d="m134.65 102.97h7.92v7.92h-7.92z" fill="#efcfaf"/><path d="m134.65 95.05h7.92v7.92h-7.92z" fill="#42210b"/><path d="m134.65 87.13h7.92v7.92h-7.92z" fill="#e0a920"/><path d="m134.65 79.21h7.92v7.92h-7.92z" fill="#fcee21"/><path d="m134.65 71.29h7.92v7.92h-7.92z" fill="#fcee21"/><path d="m134.65 63.36h7.92v7.93h-7.92z" fill="#fcee21"/><path d="m134.65 55.44h7.92v7.92h-7.92z" fill="#fcee21"/><path d="m134.65 47.52h7.92v7.92h-7.92z" fill="#fcee21"/><path d="m134.65 39.6h7.92v7.92h-7.92z" fill="#fcee21"/><path d="m134.65 31.68h7.92v7.92h-7.92z" fill="#fcee21"/><path d="m134.65 23.76h7.92v7.92h-7.92z" fill="#fcee21"/><path d="m134.65 15.84h7.92v7.92h-7.92z" fill="#e0a920"/><path d="m134.65 7.92h7.92v7.92h-7.92z" fill="#331707"/><path d="m126.73 570.29h7.92v7.92h-7.92z" fill="#331707"/><path d="m126.73 562.37h7.92v7.92h-7.92z" fill="#efcfaf"/><path d="m126.73 554.45h7.92v7.92h-7.92z" fill="#efcfaf"/><path d="m126.73 546.53h7.92v7.92h-7.92z" fill="#efcfaf"/><path d="m126.73 538.61h7.92v7.92h-7.92z" fill="#efcfaf"/><path d="m126.73 530.69h7.92v7.92h-7.92z" fill="#efcfaf"/><path d="m126.73 522.77h7.92v7.92h-7.92z" fill="#efcfaf"/><path d="m126.73 514.85h7.92v7.92h-7.92z" fill="#efcfaf"/><path d="m126.73 506.93h7.92v7.92h-7.92z" fill="#d8af91"/><path d="m126.73 499.01h7.92v7.92h-7.92z" fill="#d8af91"/><path d="m126.73 491.09h7.92v7.92h-7.92z" fill="#d8af91"/><path d="m126.73 483.17h7.92v7.92h-7.92z" fill="#d8af91"/><path d="m126.73 475.25h7.92v7.92h-7.92z" fill="#d8af91"/><path d="m126.73 467.32h7.92v7.93h-7.92z" fill="#d8af91"/><path d="m126.73 459.4h7.92v7.92h-7.92z" fill="#d8af91"/><path d="m126.73 451.48h7.92v7.92h-7.92z" fill="#d8af91"/><path d="m126.73 443.56h7.92v7.92h-7.92z" fill="#efcfaf"/><path d="m126.73 435.64h7.92v7.92h-7.92z" fill="#efcfaf"/><path d="m126.73 427.72h7.92v7.92h-7.92z" fill="#efcfaf"/><path d="m126.73 419.8h7.92v7.92h-7.92z" fill="#efcfaf"/><path d="m126.73 411.88h7.92v7.92h-7.92z" fill="#efcfaf"/><path d="m126.73 403.96h7.92v7.92h-7.92z" fill="#efcfaf"/><path d="m126.73 396.04h7.92v7.92h-7.92z" fill="#efcfaf"/><path d="m126.73 388.12h7.92v7.92h-7.92z" fill="#efcfaf"/><path d="m126.73 380.2h7.92v7.92h-7.92z" fill="#efcfaf"/><path d="m126.73 372.28h7.92v7.92h-7.92z" fill="#efcfaf"/><path d="m126.73 364.36h7.92v7.92h-7.92z" fill="#efcfaf"/><path d="m126.73 356.44h7.92v7.92h-7.92z" fill="#efcfaf"/><path d="m126.73 348.52h7.92v7.92h-7.92z" fill="#efcfaf"/><path d="m126.73 340.6h7.92v7.92h-7.92z" fill="#efcfaf"/><path d="m126.73 332.67h7.92v7.93h-7.92z" fill="#bc8b69"/><path d="m126.73 324.75h7.92v7.92h-7.92z" fill="#d8af91"/><path d="m126.73 316.83h7.92v7.92h-7.92z" fill="#efcfaf"/><path d="m126.73 308.91h7.92v7.92h-7.92z" fill="#efcfaf"/><path d="m126.73 300.99h7.92v7.92h-7.92z" fill="#efcfaf"/><path d="m126.73 293.07h7.92v7.92h-7.92z" fill="#efcfaf"/><path d="m126.73 285.15h7.92v7.92h-7.92z" fill="#efcfaf"/><path d="m126.73 277.23h7.92v7.92h-7.92z" fill="#efcfaf"/><path d="m126.73 269.31h7.92v7.92h-7.92z" fill="#efcfaf"/><path d="m126.73 261.39h7.92v7.92h-7.92z" fill="#efcfaf"/><path d="m126.73 253.47h7.92v7.92h-7.92z" fill="#efcfaf"/><path d="m126.73 245.55h7.92v7.92h-7.92z" fill="#d8af91"/><path d="m126.73 237.63h7.92v7.92h-7.92z" fill="#331707"/><path d="m126.73 229.71h7.92v7.92h-7.92z" fill="#efcfaf"/><path d="m126.73 221.79h7.92v7.92h-7.92z" fill="#efcfaf"/><path d="m126.73 213.87h7.92v7.92h-7.92z" fill="#efcfaf"/><path d="m126.73 205.95h7.92v7.92h-7.92z" fill="#efcfaf"/><path d="m126.73 198.01h7.92v7.93h-7.92z" fill="#d8af91"/><path d="m126.73 190.09h7.92v7.92h-7.92z" fill="#bc8b69"/><path d="m126.73 182.17h7.92v7.92h-7.92z" fill="#efcfaf"/><path d="m126.73 174.25h7.92v7.92h-7.92z" fill="#efcfaf"/><path d="m126.73 166.33h7.92v7.92h-7.92z" fill="#efcfaf"/><path d="m126.73 158.41h7.92v7.92h-7.92z" fill="#efcfaf"/><path d="m126.73 150.49h7.92v7.92h-7.92z" fill="#efcfaf"/><path d="m126.73 142.57h7.92v7.92h-7.92z" fill="#efcfaf"/><path d="m126.73 134.65h7.92v7.92h-7.92z" fill="#efcfaf"/><path d="m126.73 126.73h7.92v7.92h-7.92z" fill="#efcfaf"/><path d="m126.73 118.81h7.92v7.92h-7.92z" fill="#efcfaf"/><path d="m126.73 110.89h7.92v7.92h-7.92z" fill="#efcfaf"/><path d="m126.73 102.97h7.92v7.92h-7.92z" fill="#42210b"/><path d="m126.73 95.05h7.92v7.92h-7.92z" fill="#42210b"/><path d="m126.73 87.13h7.92v7.92h-7.92z" fill="#e0a920"/><path d="m126.73 79.21h7.92v7.92h-7.92z" fill="#fcee21"/><path d="m126.73 71.29h7.92v7.92h-7.92z" fill="#fcee21"/><path d="m126.73 63.36h7.92v7.93h-7.92z" fill="#fcee21"/><path d="m126.73 55.44h7.92v7.92h-7.92z" fill="#fcee21"/><path d="m126.73 47.52h7.92v7.92h-7.92z" fill="#fcee21"/><path d="m126.73 39.6h7.92v7.92h-7.92z" fill="#fcee21"/><path d="m126.73 31.68h7.92v7.92h-7.92z" fill="#fcee21"/><path d="m126.73 23.76h7.92v7.92h-7.92z" fill="#fcee21"/><path d="m126.73 15.84h7.92v7.92h-7.92z" fill="#fcee21"/><path d="m126.73 7.92h7.92v7.92h-7.92z" fill="#331707"/><path d="m118.81 570.29h7.92v7.92h-7.92z" fill="#331707"/><path d="m118.81 562.37h7.92v7.92h-7.92z" fill="#331707"/><path d="m118.81 554.45h7.92v7.92h-7.92z" fill="#331707"/><path d="m118.81 546.53h7.92v7.92h-7.92z" fill="#331707"/><path d="m118.81 538.61h7.92v7.92h-7.92z" fill="#331707"/><path d="m118.81 530.69h7.92v7.92h-7.92z" fill="#331707"/><path d="m118.81 522.77h7.92v7.92h-7.92z" fill="#331707"/><path d="m118.81 514.85h7.92v7.92h-7.92z" fill="#331707"/><path d="m118.81 506.93h7.92v7.92h-7.92z" fill="#331707"/><path d="m118.81 499.01h7.92v7.92h-7.92z" fill="#331707"/><path d="m118.81 491.09h7.92v7.92h-7.92z" fill="#331707"/><path d="m118.81 483.17h7.92v7.92h-7.92z" fill="#331707"/><path d="m118.81 475.25h7.92v7.92h-7.92z" fill="#331707"/><path d="m118.81 467.32h7.92v7.93h-7.92z" fill="#331707"/><path d="m118.81 459.4h7.92v7.92h-7.92z" fill="#331707"/><path d="m118.81 451.48h7.92v7.92h-7.92z" fill="#331707"/><path d="m118.81 443.56h7.92v7.92h-7.92z" fill="#331707"/><path d="m118.81 435.64h7.92v7.92h-7.92z" fill="#efcfaf"/><path d="m118.81 427.72h7.92v7.92h-7.92z" fill="#efcfaf"/><path d="m118.81 419.8h7.92v7.92h-7.92z" fill="#efcfaf"/><path d="m118.81 411.88h7.92v7.92h-7.92z" fill="#efcfaf"/><path d="m118.81 403.96h7.92v7.92h-7.92z" fill="#efcfaf"/><path d="m118.81 396.04h7.92v7.92h-7.92z" fill="#bc8b69"/><path d="m118.81 388.12h7.92v7.92h-7.92z" fill="#d8af91"/><path d="m118.81 380.2h7.92v7.92h-7.92z" fill="#efcfaf"/><path d="m118.81 372.28h7.92v7.92h-7.92z" fill="#efcfaf"/><path d="m118.81 364.36h7.92v7.92h-7.92z" fill="#efcfaf"/><path d="m118.81 356.44h7.92v7.92h-7.92z" fill="#efcfaf"/><path d="m118.81 348.52h7.92v7.92h-7.92z" fill="#efcfaf"/><path d="m118.81 340.6h7.92v7.92h-7.92z" fill="#efcfaf"/><path d="m118.81 332.67h7.92v7.93h-7.92z" fill="#efcfaf"/><path d="m118.81 324.75h7.92v7.92h-7.92z" fill="#bc8b69"/><path d="m118.81 316.83h7.92v7.92h-7.92z" fill="#efcfaf"/><path d="m118.81 308.91h7.92v7.92h-7.92z" fill="#efcfaf"/><path d="m118.81 300.99h7.92v7.92h-7.92z" fill="#efcfaf"/><path d="m118.81 293.07h7.92v7.92h-7.92z" fill="#efcfaf"/><path d="m118.81 285.15h7.92v7.92h-7.92z" fill="#efcfaf"/><path d="m118.81 277.23h7.92v7.92h-7.92z" fill="#efcfaf"/><path d="m118.81 269.31h7.92v7.92h-7.92z" fill="#efcfaf"/><path d="m118.81 261.39h7.92v7.92h-7.92z" fill="#efcfaf"/><path d="m118.81 253.47h7.92v7.92h-7.92z" fill="#efcfaf"/><path d="m118.81 245.55h7.92v7.92h-7.92z" fill="#d8af91"/><path d="m118.81 237.63h7.92v7.92h-7.92z" fill="#331707"/><path d="m118.81 229.71h7.92v7.92h-7.92z" fill="#efcfaf"/><path d="m118.81 221.79h7.92v7.92h-7.92z" fill="#efcfaf"/><path d="m118.81 213.87h7.92v7.92h-7.92z" fill="#d8af91"/><path d="m118.81 205.95h7.92v7.92h-7.92z" fill="#efcfaf"/><path d="m118.81 198.01h7.92v7.93h-7.92z" fill="#d8af91"/><path d="m118.81 190.09h7.92v7.92h-7.92z" fill="#bc8b69"/><path d="m118.81 182.17h7.92v7.92h-7.92z" fill="#efcfaf"/><path d="m118.81 174.25h7.92v7.92h-7.92z" fill="#efcfaf"/><path d="m118.81 166.33h7.92v7.92h-7.92z" fill="#bc8b69"/><path d="m118.81 158.41h7.92v7.92h-7.92z" fill="#efcfaf"/><path d="m118.81 150.49h7.92v7.92h-7.92z" fill="#efcfaf"/><path d="m118.81 142.57h7.92v7.92h-7.92z" fill="#efcfaf"/><path d="m118.81 134.65h7.92v7.92h-7.92z" fill="#efcfaf"/><path d="m118.81 126.73h7.92v7.92h-7.92z" fill="#efcfaf"/><path d="m118.81 118.81h7.92v7.92h-7.92z" fill="#efcfaf"/><path d="m118.81 110.89h7.92v7.92h-7.92z" fill="#42210b"/><path d="m118.81 102.97h7.92v7.92h-7.92z" fill="#e0a920"/><path d="m118.81 95.05h7.92v7.92h-7.92z" fill="#e0a920"/><path d="m118.81 87.13h7.92v7.92h-7.92z" fill="#e0a920"/><path d="m118.81 79.21h7.92v7.92h-7.92z" fill="#fcee21"/><path d="m118.81 71.29h7.92v7.92h-7.92z" fill="#fcee21"/><path d="m118.81 63.36h7.92v7.93h-7.92z" fill="#fcee21"/><path d="m118.81 55.44h7.92v7.92h-7.92z" fill="#fcee21"/><path d="m118.81 47.52h7.92v7.92h-7.92z" fill="#fcee21"/><path d="m118.81 39.6h7.92v7.92h-7.92z" fill="#fcee21"/><path d="m118.81 31.68h7.92v7.92h-7.92z" fill="#fcee21"/><path d="m118.81 23.76h7.92v7.92h-7.92z" fill="#fcee21"/><path d="m118.81 15.84h7.92v7.92h-7.92z" fill="#fcee21"/><path d="m118.81 7.92h7.92v7.92h-7.92z" fill="#331707"/><path d="m118.81 0h7.92v7.92h-7.92z" fill="#331707"/><path d="m110.89 570.29h7.92v7.92h-7.92z" fill="#331707"/><path d="m110.89 562.37h7.92v7.92h-7.92z" fill="#efcfaf"/><path d="m110.89 554.45h7.92v7.92h-7.92z" fill="#efcfaf"/><path d="m110.89 546.53h7.92v7.92h-7.92z" fill="#efcfaf"/><path d="m110.89 538.61h7.92v7.92h-7.92z" fill="#331707"/><path d="m110.89 443.56h7.92v7.92h-7.92z" fill="#331707"/><path d="m110.89 435.64h7.92v7.92h-7.92z" fill="#331707"/><path d="m110.89 427.72h7.92v7.92h-7.92z" fill="#efcfaf"/><path d="m110.89 419.8h7.92v7.92h-7.92z" fill="#efcfaf"/><path d="m110.89 411.88h7.92v7.92h-7.92z" fill="#efcfaf"/><path d="m110.89 403.96h7.92v7.92h-7.92z" fill="#efcfaf"/><path d="m110.89 396.04h7.92v7.92h-7.92z" fill="#d8af91"/><path d="m110.89 388.12h7.92v7.92h-7.92z" fill="#d8af91"/><path d="m110.89 380.2h7.92v7.92h-7.92z" fill="#efcfaf"/><path d="m110.89 372.28h7.92v7.92h-7.92z" fill="#efcfaf"/><path d="m110.89 364.36h7.92v7.92h-7.92z" fill="#efcfaf"/><path d="m110.89 356.44h7.92v7.92h-7.92z" fill="#efcfaf"/><path d="m110.89 348.52h7.92v7.92h-7.92z" fill="#efcfaf"/><path d="m110.89 340.6h7.92v7.92h-7.92z" fill="#efcfaf"/><path d="m110.89 332.67h7.92v7.93h-7.92z" fill="#efcfaf"/><path d="m110.89 324.75h7.92v7.92h-7.92z" fill="#efcfaf"/><path d="m110.89 316.83h7.92v7.92h-7.92z" fill="#efcfaf"/><path d="m110.89 308.91h7.92v7.92h-7.92z" fill="#efcfaf"/><path d="m110.89 300.99h7.92v7.92h-7.92z" fill="#efcfaf"/><path d="m110.89 293.07h7.92v7.92h-7.92z" fill="#efcfaf"/><path d="m110.89 285.15h7.92v7.92h-7.92z" fill="#efcfaf"/><path d="m110.89 277.23h7.92v7.92h-7.92z" fill="#efcfaf"/><path d="m110.89 269.31h7.92v7.92h-7.92z" fill="#efcfaf"/><path d="m110.89 261.39h7.92v7.92h-7.92z" fill="#efcfaf"/><path d="m110.89 253.47h7.92v7.92h-7.92z" fill="#efcfaf"/><path d="m110.89 245.55h7.92v7.92h-7.92z" fill="#d8af91"/><path d="m110.89 237.63h7.92v7.92h-7.92z" fill="#331707"/><path d="m110.89 229.71h7.92v7.92h-7.92z" fill="#efcfaf"/><path d="m110.89 221.79h7.92v7.92h-7.92z" fill="#efcfaf"/><path d="m110.89 213.87h7.92v7.92h-7.92z" fill="#d8af91"/><path d="m110.89 205.95h7.92v7.92h-7.92z" fill="#efcfaf"/><path d="m110.89 198.01h7.92v7.93h-7.92z" fill="#d8af91"/><path d="m110.89 190.09h7.92v7.92h-7.92z" fill="#bc8b69"/><path d="m110.89 182.17h7.92v7.92h-7.92z" fill="#efcfaf"/><path d="m110.89 174.25h7.92v7.92h-7.92z" fill="#efcfaf"/><path d="m110.89 166.33h7.92v7.92h-7.92z" fill="#bc8b69"/><path d="m110.89 158.41h7.92v7.92h-7.92z" fill="#bc8b69"/><path d="m110.89 150.49h7.92v7.92h-7.92z" fill="#bc8b69"/><path d="m110.89 142.57h7.92v7.92h-7.92z" fill="#efcfaf"/><path d="m110.89 134.65h7.92v7.92h-7.92z" fill="#efcfaf"/><path d="m110.89 126.73h7.92v7.92h-7.92z" fill="#efcfaf"/><path d="m110.89 118.81h7.92v7.92h-7.92z" fill="#42210b"/><path d="m110.89 110.89h7.92v7.92h-7.92z" fill="#e0a920"/><path d="m110.89 102.97h7.92v7.92h-7.92z" fill="#e0a920"/><path d="m110.89 95.05h7.92v7.92h-7.92z" fill="#e0a920"/><path d="m110.89 87.13h7.92v7.92h-7.92z" fill="#fcee21"/><path d="m110.89 79.21h7.92v7.92h-7.92z" fill="#fcee21"/><path d="m110.89 71.29h7.92v7.92h-7.92z" fill="#fcee21"/><path d="m110.89 63.36h7.92v7.93h-7.92z" fill="#fcee21"/><path d="m110.89 55.44h7.92v7.92h-7.92z" fill="#fcee21"/><path d="m110.89 47.52h7.92v7.92h-7.92z" fill="#fcee21"/><path d="m110.89 39.6h7.92v7.92h-7.92z" fill="#fcee21"/><path d="m110.89 31.68h7.92v7.92h-7.92z" fill="#fcee21"/><path d="m110.89 23.76h7.92v7.92h-7.92z" fill="#fcee21"/><path d="m110.89 15.84h7.92v7.92h-7.92z" fill="#fcee21"/><path d="m110.89 7.92h7.92v7.92h-7.92z" fill="#e0a920"/><path d="m110.89 0h7.92v7.92h-7.92z" fill="#331707"/><path d="m102.97 570.29h7.92v7.92h-7.92z" fill="#331707"/><path d="m102.97 562.37h7.92v7.92h-7.92z" fill="#efcfaf"/><path d="m102.97 554.45h7.92v7.92h-7.92z" fill="#efcfaf"/><path d="m102.97 546.53h7.92v7.92h-7.92z" fill="#efcfaf"/><path d="m102.97 538.61h7.92v7.92h-7.92z" fill="#d8af91"/><path d="m102.97 530.69h7.92v7.92h-7.92z" fill="#331707"/><path d="m102.97 522.77h7.92v7.92h-7.92z" fill="#331707"/><path d="m102.97 514.85h7.92v7.92h-7.92z" fill="#331707"/><path d="m102.97 506.93h7.92v7.92h-7.92z" fill="#331707"/><path d="m102.97 499.01h7.92v7.92h-7.92z" fill="#331707"/><path d="m102.97 491.09h7.92v7.92h-7.92z" fill="#331707"/><path d="m102.97 483.17h7.92v7.92h-7.92z" fill="#331707"/><path d="m102.97 475.25h7.92v7.92h-7.92z" fill="#331707"/><path d="m102.97 467.32h7.92v7.93h-7.92z" fill="#331707"/><path d="m102.97 459.4h7.92v7.92h-7.92z" fill="#331707"/><path d="m102.97 451.48h7.92v7.92h-7.92z" fill="#331707"/><path d="m102.97 443.56h7.92v7.92h-7.92z" fill="#331707"/><path d="m102.97 435.64h7.92v7.92h-7.92z" fill="#efcfaf"/><path d="m102.97 427.72h7.92v7.92h-7.92z" fill="#efcfaf"/><path d="m102.97 419.8h7.92v7.92h-7.92z" fill="#efcfaf"/><path d="m102.97 411.88h7.92v7.92h-7.92z" fill="#efcfaf"/><path d="m102.97 403.96h7.92v7.92h-7.92z" fill="#efcfaf"/><path d="m102.97 396.04h7.92v7.92h-7.92z" fill="#efcfaf"/><path d="m102.97 388.12h7.92v7.92h-7.92z" fill="#efcfaf"/><path d="m102.97 380.2h7.92v7.92h-7.92z" fill="#efcfaf"/><path d="m102.97 372.28h7.92v7.92h-7.92z" fill="#efcfaf"/><path d="m102.97 364.36h7.92v7.92h-7.92z" fill="#efcfaf"/><path d="m102.97 356.44h7.92v7.92h-7.92z" fill="#efcfaf"/><path d="m102.97 348.52h7.92v7.92h-7.92z" fill="#efcfaf"/><path d="m102.97 340.6h7.92v7.92h-7.92z" fill="#efcfaf"/><path d="m102.97 332.67h7.92v7.93h-7.92z" fill="#efcfaf"/><path d="m102.97 324.75h7.92v7.92h-7.92z" fill="#bc8b69"/><path d="m102.97 316.83h7.92v7.92h-7.92z" fill="#efcfaf"/><path d="m102.97 308.91h7.92v7.92h-7.92z" fill="#efcfaf"/><path d="m102.97 300.99h7.92v7.92h-7.92z" fill="#efcfaf"/><path d="m102.97 293.07h7.92v7.92h-7.92z" fill="#efcfaf"/><path d="m102.97 285.15h7.92v7.92h-7.92z" fill="#efcfaf"/><path d="m102.97 277.23h7.92v7.92h-7.92z" fill="#efcfaf"/><path d="m102.97 269.31h7.92v7.92h-7.92z" fill="#efcfaf"/><path d="m102.97 261.39h7.92v7.92h-7.92z" fill="#efcfaf"/><path d="m102.97 253.47h7.92v7.92h-7.92z" fill="#efcfaf"/><path d="m102.97 245.55h7.92v7.92h-7.92z" fill="#d8af91"/><path d="m102.97 237.63h7.92v7.92h-7.92z" fill="#331707"/><path d="m102.97 229.71h7.92v7.92h-7.92z" fill="#efcfaf"/><path d="m102.97 221.79h7.92v7.92h-7.92z" fill="#efcfaf"/><path d="m102.97 213.87h7.92v7.92h-7.92z" fill="#d8af91"/><path d="m102.97 205.95h7.92v7.92h-7.92z" fill="#efcfaf"/><path d="m102.97 198.01h7.92v7.93h-7.92z" fill="#d8af91"/><path d="m102.97 190.09h7.92v7.92h-7.92z" fill="#bc8b69"/><path d="m102.97 182.17h7.92v7.92h-7.92z" fill="#efcfaf"/><path d="m102.97 174.25h7.92v7.92h-7.92z" fill="#efcfaf"/><path d="m102.97 166.33h7.92v7.92h-7.92z" fill="#d8af91"/><path d="m102.97 158.41h7.92v7.92h-7.92z" fill="#d8af91"/><path d="m102.97 150.49h7.92v7.92h-7.92z" fill="#efcfaf"/><path d="m102.97 142.57h7.92v7.92h-7.92z" fill="#efcfaf"/><path d="m102.97 134.65h7.92v7.92h-7.92z" fill="#efcfaf"/><path d="m102.97 126.73h7.92v7.92h-7.92z" fill="#efcfaf"/><path d="m102.97 118.81h7.92v7.92h-7.92z" fill="#42210b"/><path d="m102.97 110.89h7.92v7.92h-7.92z" fill="#e0a920"/><path d="m102.97 102.97h7.92v7.92h-7.92z" fill="#e0a920"/><path d="m102.97 95.05h7.92v7.92h-7.92z" fill="#e0a920"/><path d="m102.97 87.13h7.92v7.92h-7.92z" fill="#e0a920"/><path d="m102.97 79.21h7.92v7.92h-7.92z" fill="#fcee21"/><path d="m102.97 71.29h7.92v7.92h-7.92z" fill="#fcee21"/><path d="m102.97 63.36h7.92v7.93h-7.92z" fill="#fcee21"/><path d="m102.97 55.44h7.92v7.92h-7.92z" fill="#fcee21"/><path d="m102.97 47.52h7.92v7.92h-7.92z" fill="#fcee21"/><path d="m102.97 39.6h7.92v7.92h-7.92z" fill="#fcee21"/><path d="m102.97 31.68h7.92v7.92h-7.92z" fill="#fcee21"/><path d="m102.97 23.76h7.92v7.92h-7.92z" fill="#fcee21"/><path d="m102.97 15.84h7.92v7.92h-7.92z" fill="#fcee21"/><path d="m102.97 7.92h7.92v7.92h-7.92z" fill="#e0a920"/><path d="m102.97 0h7.92v7.92h-7.92z" fill="#331707"/><path d="m95.04 570.29h7.93v7.92h-7.93z" fill="#331707"/><path d="m95.04 562.37h7.93v7.92h-7.93z" fill="#efcfaf"/><path d="m95.04 554.45h7.93v7.92h-7.93z" fill="#efcfaf"/><path d="m95.04 546.53h7.93v7.92h-7.93z" fill="#efcfaf"/><path d="m95.04 538.61h7.93v7.92h-7.93z" fill="#d8af91"/><path d="m95.04 530.69h7.93v7.92h-7.93z" fill="#efcfaf"/><path d="m95.04 522.77h7.93v7.92h-7.93z" fill="#efcfaf"/><path d="m95.04 514.85h7.93v7.92h-7.93z" fill="#efcfaf"/><path d="m95.04 506.93h7.93v7.92h-7.93z" fill="#d8af91"/><path d="m95.04 499.01h7.93v7.92h-7.93z" fill="#d8af91"/><path d="m95.04 491.09h7.93v7.92h-7.93z" fill="#d8af91"/><path d="m95.04 483.17h7.93v7.92h-7.93z" fill="#d8af91"/><path d="m95.04 475.25h7.93v7.92h-7.93z" fill="#d8af91"/><path d="m95.04 467.32h7.93v7.93h-7.93z" fill="#d8af91"/><path d="m95.04 459.4h7.93v7.92h-7.93z" fill="#d8af91"/><path d="m95.04 451.48h7.93v7.92h-7.93z" fill="#d8af91"/><path d="m95.04 443.56h7.93v7.92h-7.93z" fill="#efcfaf"/><path d="m95.04 435.64h7.93v7.92h-7.93z" fill="#efcfaf"/><path d="m95.04 427.72h7.93v7.92h-7.93z" fill="#efcfaf"/><path d="m95.04 419.8h7.93v7.92h-7.93z" fill="#efcfaf"/><path d="m95.04 411.88h7.93v7.92h-7.93z" fill="#efcfaf"/><path d="m95.04 403.96h7.93v7.92h-7.93z" fill="#efcfaf"/><path d="m95.04 396.04h7.93v7.92h-7.93z" fill="#efcfaf"/><path d="m95.04 388.12h7.93v7.92h-7.93z" fill="#efcfaf"/><path d="m95.04 380.2h7.93v7.92h-7.93z" fill="#efcfaf"/><path d="m95.04 372.28h7.93v7.92h-7.93z" fill="#efcfaf"/><path d="m95.04 364.36h7.93v7.92h-7.93z" fill="#efcfaf"/><path d="m95.04 356.44h7.93v7.92h-7.93z" fill="#efcfaf"/><path d="m95.04 348.52h7.93v7.92h-7.93z" fill="#efcfaf"/><path d="m95.04 340.6h7.93v7.92h-7.93z" fill="#efcfaf"/><path d="m95.04 332.67h7.93v7.93h-7.93z" fill="#bc8b69"/><path d="m95.04 324.75h7.93v7.92h-7.93z" fill="#d8af91"/><path d="m95.04 316.83h7.93v7.92h-7.93z" fill="#efcfaf"/><path d="m95.04 308.91h7.93v7.92h-7.93z" fill="#efcfaf"/><path d="m95.04 300.99h7.93v7.92h-7.93z" fill="#efcfaf"/><path d="m95.04 293.07h7.93v7.92h-7.93z" fill="#efcfaf"/><path d="m95.04 285.15h7.93v7.92h-7.93z" fill="#efcfaf"/><path d="m95.04 277.23h7.93v7.92h-7.93z" fill="#efcfaf"/><path d="m95.04 269.31h7.93v7.92h-7.93z" fill="#efcfaf"/><path d="m95.04 261.39h7.93v7.92h-7.93z" fill="#efcfaf"/><path d="m95.04 253.47h7.93v7.92h-7.93z" fill="#efcfaf"/><path d="m95.04 245.55h7.93v7.92h-7.93z" fill="#d8af91"/><path d="m95.04 237.63h7.93v7.92h-7.93z" fill="#331707"/><path d="m95.04 229.71h7.93v7.92h-7.93z" fill="#efcfaf"/><path d="m95.04 221.79h7.93v7.92h-7.93z" fill="#efcfaf"/><path d="m95.04 213.87h7.93v7.92h-7.93z" fill="#efcfaf"/><path d="m95.04 205.95h7.93v7.92h-7.93z" fill="#efcfaf"/><path d="m95.04 198.01h7.93v7.93h-7.93z" fill="#d8af91"/><path d="m95.04 190.09h7.93v7.92h-7.93z" fill="#bc8b69"/><path d="m95.04 182.17h7.93v7.92h-7.93z" fill="#efcfaf"/><path d="m95.04 174.25h7.93v7.92h-7.93z" fill="#efcfaf"/><path d="m95.04 166.33h7.93v7.92h-7.93z" fill="#efcfaf"/><path d="m95.04 158.41h7.93v7.92h-7.93z" fill="#efcfaf"/><path d="m95.04 150.49h7.93v7.92h-7.93z" fill="#efcfaf"/><path d="m95.04 142.57h7.93v7.92h-7.93z" fill="#efcfaf"/><path d="m95.04 134.65h7.93v7.92h-7.93z" fill="#efcfaf"/><path d="m95.04 126.73h7.93v7.92h-7.93z" fill="#efcfaf"/><path d="m95.04 118.81h7.93v7.92h-7.93z" fill="#efcfaf"/><path d="m95.04 110.89h7.93v7.92h-7.93z" fill="#42210b"/><path d="m95.04 102.97h7.93v7.92h-7.93z" fill="#42210b"/><path d="m95.04 95.05h7.93v7.92h-7.93z" fill="#42210b"/><path d="m95.04 87.13h7.93v7.92h-7.93z" fill="#e0a920"/><path d="m95.04 79.21h7.93v7.92h-7.93z" fill="#e0a920"/><path d="m95.04 71.29h7.93v7.92h-7.93z" fill="#fcee21"/><path d="m95.04 63.36h7.93v7.93h-7.93z" fill="#fcee21"/><path d="m95.04 55.44h7.93v7.92h-7.93z" fill="#fcee21"/><path d="m95.04 47.52h7.93v7.92h-7.93z" fill="#fcee21"/><path d="m95.04 39.6h7.93v7.92h-7.93z" fill="#fcee21"/><path d="m95.04 31.68h7.93v7.92h-7.93z" fill="#fcee21"/><path d="m95.04 23.76h7.93v7.92h-7.93z" fill="#fcee21"/><path d="m95.04 15.84h7.93v7.92h-7.93z" fill="#fcee21"/><path d="m95.04 7.92h7.93v7.92h-7.93z" fill="#e0a920"/><path d="m95.04 0h7.93v7.92h-7.93z" fill="#331707"/><path d="m87.12 570.29h7.92v7.92h-7.92z" fill="#331707"/><path d="m87.12 562.37h7.92v7.92h-7.92z" fill="#efcfaf"/><path d="m87.12 554.45h7.92v7.92h-7.92z" fill="#efcfaf"/><path d="m87.12 546.53h7.92v7.92h-7.92z" fill="#efcfaf"/><path d="m87.12 538.61h7.92v7.92h-7.92z" fill="#efcfaf"/><path d="m87.12 530.69h7.92v7.92h-7.92z" fill="#efcfaf"/><path d="m87.12 522.77h7.92v7.92h-7.92z" fill="#efcfaf"/><path d="m87.12 514.85h7.92v7.92h-7.92z" fill="#efcfaf"/><path d="m87.12 506.93h7.92v7.92h-7.92z" fill="#efcfaf"/><path d="m87.12 499.01h7.92v7.92h-7.92z" fill="#efcfaf"/><path d="m87.12 491.09h7.92v7.92h-7.92z" fill="#efcfaf"/><path d="m87.12 483.17h7.92v7.92h-7.92z" fill="#efcfaf"/><path d="m87.12 475.25h7.92v7.92h-7.92z" fill="#efcfaf"/><path d="m87.12 467.32h7.92v7.93h-7.92z" fill="#efcfaf"/><path d="m87.12 459.4h7.92v7.92h-7.92z" fill="#efcfaf"/><path d="m87.12 451.48h7.92v7.92h-7.92z" fill="#efcfaf"/><path d="m87.12 443.56h7.92v7.92h-7.92z" fill="#efcfaf"/><path d="m87.12 435.64h7.92v7.92h-7.92z" fill="#efcfaf"/><path d="m87.12 427.72h7.92v7.92h-7.92z" fill="#efcfaf"/><path d="m87.12 419.8h7.92v7.92h-7.92z" fill="#efcfaf"/><path d="m87.12 411.88h7.92v7.92h-7.92z" fill="#efcfaf"/><path d="m87.12 403.96h7.92v7.92h-7.92z" fill="#efcfaf"/><path d="m87.12 396.04h7.92v7.92h-7.92z" fill="#efcfaf"/><path d="m87.12 388.12h7.92v7.92h-7.92z" fill="#efcfaf"/><path d="m87.12 380.2h7.92v7.92h-7.92z" fill="#efcfaf"/><path d="m87.12 372.28h7.92v7.92h-7.92z" fill="#efcfaf"/><path d="m87.12 364.36h7.92v7.92h-7.92z" fill="#efcfaf"/><path d="m87.12 356.44h7.92v7.92h-7.92z" fill="#efcfaf"/><path d="m87.12 348.52h7.92v7.92h-7.92z" fill="#efcfaf"/><path d="m87.12 340.6h7.92v7.92h-7.92z" fill="#efcfaf"/><path d="m87.12 332.67h7.92v7.93h-7.92z" fill="#bc8b69"/><path d="m87.12 324.75h7.92v7.92h-7.92z" fill="#efcfaf"/><path d="m87.12 316.83h7.92v7.92h-7.92z" fill="#efcfaf"/><path d="m87.12 308.91h7.92v7.92h-7.92z" fill="#efcfaf"/><path d="m87.12 300.99h7.92v7.92h-7.92z" fill="#efcfaf"/><path d="m87.12 293.07h7.92v7.92h-7.92z" fill="#efcfaf"/><path d="m87.12 285.15h7.92v7.92h-7.92z" fill="#efcfaf"/><path d="m87.12 277.23h7.92v7.92h-7.92z" fill="#efcfaf"/><path d="m87.12 269.31h7.92v7.92h-7.92z" fill="#efcfaf"/><path d="m87.12 261.39h7.92v7.92h-7.92z" fill="#efcfaf"/><path d="m87.12 253.47h7.92v7.92h-7.92z" fill="#331707"/><path d="m87.12 245.55h7.92v7.92h-7.92z" fill="#331707"/><path d="m87.12 237.63h7.92v7.92h-7.92z" fill="#331707"/><path d="m87.12 229.71h7.92v7.92h-7.92z" fill="#d8af91"/><path d="m87.12 221.79h7.92v7.92h-7.92z" fill="#efcfaf"/><path d="m87.12 213.87h7.92v7.92h-7.92z" fill="#efcfaf"/><path d="m87.12 205.95h7.92v7.92h-7.92z" fill="#efcfaf"/><path d="m87.12 198.01h7.92v7.93h-7.92z" fill="#d8af91"/><path d="m87.12 190.09h7.92v7.92h-7.92z" fill="#bc8b69"/><path d="m87.12 182.17h7.92v7.92h-7.92z" fill="#efcfaf"/><path d="m87.12 174.25h7.92v7.92h-7.92z" fill="#efcfaf"/><path d="m87.12 166.33h7.92v7.92h-7.92z" fill="#efcfaf"/><path d="m87.12 158.41h7.92v7.92h-7.92z" fill="#efcfaf"/><path d="m87.12 150.49h7.92v7.92h-7.92z" fill="#efcfaf"/><path d="m87.12 142.57h7.92v7.92h-7.92z" fill="#efcfaf"/><path d="m87.12 134.65h7.92v7.92h-7.92z" fill="#fff"/><path d="m87.12 126.73h7.92v7.92h-7.92z" fill="#fff"/><path d="m87.12 118.81h7.92v7.92h-7.92z" fill="#bc8b69"/><path d="m87.12 110.89h7.92v7.92h-7.92z" fill="#efcfaf"/><path d="m87.12 102.97h7.92v7.92h-7.92z" fill="#efcfaf"/><path d="m87.12 95.05h7.92v7.92h-7.92z" fill="#42210b"/><path d="m87.12 87.13h7.92v7.92h-7.92z" fill="#42210b"/><path d="m87.12 79.21h7.92v7.92h-7.92z" fill="#e0a920"/><path d="m87.12 71.29h7.92v7.92h-7.92z" fill="#fcee21"/><path d="m87.12 63.36h7.92v7.93h-7.92z" fill="#fcee21"/><path d="m87.12 55.44h7.92v7.92h-7.92z" fill="#fcee21"/><path d="m87.12 47.52h7.92v7.92h-7.92z" fill="#fcee21"/><path d="m87.12 39.6h7.92v7.92h-7.92z" fill="#fcee21"/><path d="m87.12 31.68h7.92v7.92h-7.92z" fill="#fcee21"/><path d="m87.12 23.76h7.92v7.92h-7.92z" fill="#fcee21"/><path d="m87.12 15.84h7.92v7.92h-7.92z" fill="#e0a920"/><path d="m87.12 7.92h7.92v7.92h-7.92z" fill="#331707"/><path d="m87.12 0h7.92v7.92h-7.92z" fill="#331707"/><path d="m79.2 570.29h7.92v7.92h-7.92z" fill="#331707"/><path d="m79.2 562.37h7.92v7.92h-7.92z" fill="#efcfaf"/><path d="m79.2 554.45h7.92v7.92h-7.92z" fill="#efcfaf"/><path d="m79.2 546.53h7.92v7.92h-7.92z" fill="#efcfaf"/><path d="m79.2 538.61h7.92v7.92h-7.92z" fill="#efcfaf"/><path d="m79.2 530.69h7.92v7.92h-7.92z" fill="#efcfaf"/><path d="m79.2 522.77h7.92v7.92h-7.92z" fill="#efcfaf"/><path d="m79.2 514.85h7.92v7.92h-7.92z" fill="#efcfaf"/><path d="m79.2 506.93h7.92v7.92h-7.92z" fill="#efcfaf"/><path d="m79.2 499.01h7.92v7.92h-7.92z" fill="#efcfaf"/><path d="m79.2 491.09h7.92v7.92h-7.92z" fill="#efcfaf"/><path d="m79.2 483.17h7.92v7.92h-7.92z" fill="#efcfaf"/><path d="m79.2 475.25h7.92v7.92h-7.92z" fill="#efcfaf"/><path d="m79.2 467.32h7.92v7.93h-7.92z" fill="#efcfaf"/><path d="m79.2 459.4h7.92v7.92h-7.92z" fill="#efcfaf"/><path d="m79.2 451.48h7.92v7.92h-7.92z" fill="#efcfaf"/><path d="m79.2 443.56h7.92v7.92h-7.92z" fill="#efcfaf"/><path d="m79.2 435.64h7.92v7.92h-7.92z" fill="#efcfaf"/><path d="m79.2 427.72h7.92v7.92h-7.92z" fill="#efcfaf"/><path d="m79.2 419.8h7.92v7.92h-7.92z" fill="#efcfaf"/><path d="m79.2 411.88h7.92v7.92h-7.92z" fill="#efcfaf"/><path d="m79.2 403.96h7.92v7.92h-7.92z" fill="#efcfaf"/><path d="m79.2 396.04h7.92v7.92h-7.92z" fill="#efcfaf"/><path d="m79.2 388.12h7.92v7.92h-7.92z" fill="#efcfaf"/><path d="m79.2 380.2h7.92v7.92h-7.92z" fill="#efcfaf"/><path d="m79.2 372.28h7.92v7.92h-7.92z" fill="#efcfaf"/><path d="m79.2 364.36h7.92v7.92h-7.92z" fill="#efcfaf"/><path d="m79.2 356.44h7.92v7.92h-7.92z" fill="#efcfaf"/><path d="m79.2 348.52h7.92v7.92h-7.92z" fill="#efcfaf"/><path d="m79.2 340.6h7.92v7.92h-7.92z" fill="#efcfaf"/><path d="m79.2 332.67h7.92v7.93h-7.92z" fill="#bc8b69"/><path d="m79.2 324.75h7.92v7.92h-7.92z" fill="#efcfaf"/><path d="m79.2 316.83h7.92v7.92h-7.92z" fill="#efcfaf"/><path d="m79.2 308.91h7.92v7.92h-7.92z" fill="#efcfaf"/><path d="m79.2 300.99h7.92v7.92h-7.92z" fill="#efcfaf"/><path d="m79.2 293.07h7.92v7.92h-7.92z" fill="#efcfaf"/><path d="m79.2 285.15h7.92v7.92h-7.92z" fill="#efcfaf"/><path d="m79.2 277.23h7.92v7.92h-7.92z" fill="#efcfaf"/><path d="m79.2 269.31h7.92v7.92h-7.92z" fill="#efcfaf"/><path d="m79.2 261.39h7.92v7.92h-7.92z" fill="#331707"/><path d="m79.2 229.71h7.92v7.92h-7.92z" fill="#331707"/><path d="m79.2 221.79h7.92v7.92h-7.92z" fill="#d8af91"/><path d="m79.2 213.87h7.92v7.92h-7.92z" fill="#efcfaf"/><path d="m79.2 205.95h7.92v7.92h-7.92z" fill="#efcfaf"/><path d="m79.2 198.01h7.92v7.93h-7.92z" fill="#efcfaf"/><path d="m79.2 190.09h7.92v7.92h-7.92z" fill="#d8af91"/><path d="m79.2 182.17h7.92v7.92h-7.92z" fill="#d8af91"/><path d="m79.2 174.25h7.92v7.92h-7.92z" fill="#efcfaf"/><path d="m79.2 166.33h7.92v7.92h-7.92z" fill="#efcfaf"/><path d="m79.2 158.41h7.92v7.92h-7.92z" fill="#efcfaf"/><path d="m79.2 150.49h7.92v7.92h-7.92z" fill="#efcfaf"/><path d="m79.2 142.57h7.92v7.92h-7.92z" fill="#efcfaf"/><path d="m79.2 134.65h7.92v7.92h-7.92z" fill="#0071bc"/><path d="m79.2 126.73h7.92v7.92h-7.92z" fill="#0071bc"/><path d="m79.2 118.81h7.92v7.92h-7.92z" fill="#bc8b69"/><path d="m79.2 110.89h7.92v7.92h-7.92z" fill="#efcfaf"/><path d="m79.2 102.97h7.92v7.92h-7.92z" fill="#efcfaf"/><path d="m79.2 95.05h7.92v7.92h-7.92z" fill="#efcfaf"/><path d="m79.2 87.13h7.92v7.92h-7.92z" fill="#42210b"/><path d="m79.2 79.21h7.92v7.92h-7.92z" fill="#e0a920"/><path d="m79.2 71.29h7.92v7.92h-7.92z" fill="#fcee21"/><path d="m79.2 63.36h7.92v7.93h-7.92z" fill="#fcee21"/><path d="m79.2 55.44h7.92v7.92h-7.92z" fill="#fcee21"/><path d="m79.2 47.52h7.92v7.92h-7.92z" fill="#fcee21"/><path d="m79.2 39.6h7.92v7.92h-7.92z" fill="#fcee21"/><path d="m79.2 31.68h7.92v7.92h-7.92z" fill="#fcee21"/><path d="m79.2 23.76h7.92v7.92h-7.92z" fill="#fcee21"/><path d="m79.2 15.84h7.92v7.92h-7.92z" fill="#e0a920"/><path d="m79.2 7.92h7.92v7.92h-7.92z" fill="#331707"/><path d="m71.28 570.29h7.92v7.92h-7.92z" fill="#331707"/><path d="m71.28 562.37h7.92v7.92h-7.92z" fill="#efcfaf"/><path d="m71.28 554.45h7.92v7.92h-7.92z" fill="#efcfaf"/><path d="m71.28 546.53h7.92v7.92h-7.92z" fill="#efcfaf"/><path d="m71.28 538.61h7.92v7.92h-7.92z" fill="#efcfaf"/><path d="m71.28 530.69h7.92v7.92h-7.92z" fill="#efcfaf"/><path d="m71.28 522.77h7.92v7.92h-7.92z" fill="#efcfaf"/><path d="m71.28 514.85h7.92v7.92h-7.92z" fill="#efcfaf"/><path d="m71.28 506.93h7.92v7.92h-7.92z" fill="#efcfaf"/><path d="m71.28 499.01h7.92v7.92h-7.92z" fill="#efcfaf"/><path d="m71.28 491.09h7.92v7.92h-7.92z" fill="#efcfaf"/><path d="m71.28 483.17h7.92v7.92h-7.92z" fill="#efcfaf"/><path d="m71.28 475.25h7.92v7.92h-7.92z" fill="#efcfaf"/><path d="m71.28 467.32h7.92v7.93h-7.92z" fill="#efcfaf"/><path d="m71.28 459.4h7.92v7.92h-7.92z" fill="#efcfaf"/><path d="m71.28 451.48h7.92v7.92h-7.92z" fill="#efcfaf"/><path d="m71.28 443.56h7.92v7.92h-7.92z" fill="#efcfaf"/><path d="m71.28 435.64h7.92v7.92h-7.92z" fill="#efcfaf"/><path d="m71.28 427.72h7.92v7.92h-7.92z" fill="#d8af91"/><path d="m71.28 419.8h7.92v7.92h-7.92z" fill="#d8af91"/><path d="m71.28 411.88h7.92v7.92h-7.92z" fill="#efcfaf"/><path d="m71.28 403.96h7.92v7.92h-7.92z" fill="#efcfaf"/><path d="m71.28 396.04h7.92v7.92h-7.92z" fill="#efcfaf"/><path d="m71.28 388.12h7.92v7.92h-7.92z" fill="#efcfaf"/><path d="m71.28 380.2h7.92v7.92h-7.92z" fill="#efcfaf"/><path d="m71.28 372.28h7.92v7.92h-7.92z" fill="#efcfaf"/><path d="m71.28 364.36h7.92v7.92h-7.92z" fill="#efcfaf"/><path d="m71.28 356.44h7.92v7.92h-7.92z" fill="#efcfaf"/><path d="m71.28 348.52h7.92v7.92h-7.92z" fill="#efcfaf"/><path d="m71.28 340.6h7.92v7.92h-7.92z" fill="#efcfaf"/><path d="m71.28 332.67h7.92v7.93h-7.92z" fill="#bc8b69"/><path d="m71.28 324.75h7.92v7.92h-7.92z" fill="#d8af91"/><path d="m71.28 316.83h7.92v7.92h-7.92z" fill="#d8af91"/><path d="m71.28 308.91h7.92v7.92h-7.92z" fill="#efcfaf"/><path d="m71.28 300.99h7.92v7.92h-7.92z" fill="#efcfaf"/><path d="m71.28 293.07h7.92v7.92h-7.92z" fill="#efcfaf"/><path d="m71.28 285.15h7.92v7.92h-7.92z" fill="#efcfaf"/><path d="m71.28 277.23h7.92v7.92h-7.92z" fill="#efcfaf"/><path d="m71.28 269.31h7.92v7.92h-7.92z" fill="#331707"/><path d="m71.28 229.71h7.92v7.92h-7.92z" fill="#331707"/><path d="m71.28 221.79h7.92v7.92h-7.92z" fill="#d8af91"/><path d="m71.28 213.87h7.92v7.92h-7.92z" fill="#efcfaf"/><path d="m71.28 205.95h7.92v7.92h-7.92z" fill="#efcfaf"/><path d="m71.28 198.01h7.92v7.93h-7.92z" fill="#efcfaf"/><path d="m71.28 190.09h7.92v7.92h-7.92z" fill="#efcfaf"/><path d="m71.28 182.17h7.92v7.92h-7.92z" fill="#efcfaf"/><path d="m71.28 174.25h7.92v7.92h-7.92z" fill="#efcfaf"/><path d="m71.28 166.33h7.92v7.92h-7.92z" fill="#efcfaf"/><path d="m71.28 158.41h7.92v7.92h-7.92z" fill="#efcfaf"/><path d="m71.28 150.49h7.92v7.92h-7.92z" fill="#efcfaf"/><path d="m71.28 142.57h7.92v7.92h-7.92z" fill="#efcfaf"/><path d="m71.28 134.65h7.92v7.92h-7.92z" fill="#0071bc"/><path d="m71.28 126.73h7.92v7.92h-7.92z" fill="#58cff9"/><path d="m71.28 118.81h7.92v7.92h-7.92z" fill="#bc8b69"/><path d="m71.28 110.89h7.92v7.92h-7.92z" fill="#efcfaf"/><path d="m71.28 102.97h7.92v7.92h-7.92z" fill="#efcfaf"/><path d="m71.28 95.05h7.92v7.92h-7.92z" fill="#efcfaf"/><path d="m71.28 87.13h7.92v7.92h-7.92z" fill="#42210b"/><path d="m71.28 79.21h7.92v7.92h-7.92z" fill="#e0a920"/><path d="m71.28 71.29h7.92v7.92h-7.92z" fill="#fcee21"/><path d="m71.28 63.36h7.92v7.93h-7.92z" fill="#fcee21"/><path d="m71.28 55.44h7.92v7.92h-7.92z" fill="#fcee21"/><path d="m71.28 47.52h7.92v7.92h-7.92z" fill="#fcee21"/><path d="m71.28 39.6h7.92v7.92h-7.92z" fill="#fcee21"/><path d="m71.28 31.68h7.92v7.92h-7.92z" fill="#fcee21"/><path d="m71.28 23.76h7.92v7.92h-7.92z" fill="#e0a920"/><path d="m71.28 15.84h7.92v7.92h-7.92z" fill="#e0a920"/><path d="m71.28 7.92h7.92v7.92h-7.92z" fill="#331707"/><path d="m63.36 570.29h7.92v7.92h-7.92z" fill="#331707"/><path d="m63.36 562.37h7.92v7.92h-7.92z" fill="#efcfaf"/><path d="m63.36 554.45h7.92v7.92h-7.92z" fill="#efcfaf"/><path d="m63.36 546.53h7.92v7.92h-7.92z" fill="#efcfaf"/><path d="m63.36 538.61h7.92v7.92h-7.92z" fill="#efcfaf"/><path d="m63.36 530.69h7.92v7.92h-7.92z" fill="#efcfaf"/><path d="m63.36 522.77h7.92v7.92h-7.92z" fill="#efcfaf"/><path d="m63.36 514.85h7.92v7.92h-7.92z" fill="#efcfaf"/><path d="m63.36 506.93h7.92v7.92h-7.92z" fill="#efcfaf"/><path d="m63.36 499.01h7.92v7.92h-7.92z" fill="#efcfaf"/><path d="m63.36 491.09h7.92v7.92h-7.92z" fill="#efcfaf"/><path d="m63.36 483.17h7.92v7.92h-7.92z" fill="#efcfaf"/><path d="m63.36 475.25h7.92v7.92h-7.92z" fill="#efcfaf"/><path d="m63.36 467.32h7.92v7.93h-7.92z" fill="#efcfaf"/><path d="m63.36 459.4h7.92v7.92h-7.92z" fill="#d8af91"/><path d="m63.36 451.48h7.92v7.92h-7.92z" fill="#d8af91"/><path d="m63.36 443.56h7.92v7.92h-7.92z" fill="#d8af91"/><path d="m63.36 435.64h7.92v7.92h-7.92z" fill="#d8af91"/><path d="m63.36 427.72h7.92v7.92h-7.92z" fill="#331707"/><path d="m63.36 419.8h7.92v7.92h-7.92z" fill="#331707"/><path d="m63.36 411.88h7.92v7.92h-7.92z" fill="#d8af91"/><path d="m63.36 403.96h7.92v7.92h-7.92z" fill="#d8af91"/><path d="m63.36 396.04h7.92v7.92h-7.92z" fill="#d8af91"/><path d="m63.36 388.12h7.92v7.92h-7.92z" fill="#d8af91"/><path d="m63.36 380.2h7.92v7.92h-7.92z" fill="#efcfaf"/><path d="m63.36 372.28h7.92v7.92h-7.92z" fill="#efcfaf"/><path d="m63.36 364.36h7.92v7.92h-7.92z" fill="#efcfaf"/><path d="m63.36 356.44h7.92v7.92h-7.92z" fill="#efcfaf"/><path d="m63.36 348.52h7.92v7.92h-7.92z" fill="#d8af91"/><path d="m63.36 340.6h7.92v7.92h-7.92z" fill="#d8af91"/><path d="m63.36 332.67h7.92v7.93h-7.92z" fill="#d8af91"/><path d="m63.36 324.75h7.92v7.92h-7.92z" fill="#331707"/><path d="m63.36 316.83h7.92v7.92h-7.92z" fill="#331707"/><path d="m63.36 308.91h7.92v7.92h-7.92z" fill="#331707"/><path d="m63.36 300.99h7.92v7.92h-7.92z" fill="#efcfaf"/><path d="m63.36 293.07h7.92v7.92h-7.92z" fill="#efcfaf"/><path d="m63.36 285.15h7.92v7.92h-7.92z" fill="#efcfaf"/><path d="m63.36 277.23h7.92v7.92h-7.92z" fill="#efcfaf"/><path d="m63.36 269.31h7.92v7.92h-7.92z" fill="#331707"/><path d="m63.36 229.71h7.92v7.92h-7.92z" fill="#331707"/><path d="m63.36 221.79h7.92v7.92h-7.92z" fill="#331707"/><path d="m63.36 213.87h7.92v7.92h-7.92z" fill="#efcfaf"/><path d="m63.36 205.95h7.92v7.92h-7.92z" fill="#efcfaf"/><path d="m63.36 198.01h7.92v7.93h-7.92z" fill="#efcfaf"/><path d="m63.36 190.09h7.92v7.92h-7.92z" fill="#efcfaf"/><path d="m63.36 182.17h7.92v7.92h-7.92z" fill="#efcfaf"/><path d="m63.36 174.25h7.92v7.92h-7.92z" fill="#efcfaf"/><path d="m63.36 166.33h7.92v7.92h-7.92z" fill="#efcfaf"/><path d="m63.36 158.41h7.92v7.92h-7.92z" fill="#efcfaf"/><path d="m63.36 150.49h7.92v7.92h-7.92z" fill="#efcfaf"/><path d="m63.36 142.57h7.92v7.92h-7.92z" fill="#efcfaf"/><path d="m63.36 134.65h7.92v7.92h-7.92z" fill="#fff"/><path d="m63.36 126.73h7.92v7.92h-7.92z" fill="#fff"/><path d="m63.36 118.81h7.92v7.92h-7.92z" fill="#bc8b69"/><path d="m63.36 110.89h7.92v7.92h-7.92z" fill="#efcfaf"/><path d="m63.36 102.97h7.92v7.92h-7.92z" fill="#efcfaf"/><path d="m63.36 95.05h7.92v7.92h-7.92z" fill="#efcfaf"/><path d="m63.36 87.13h7.92v7.92h-7.92z" fill="#42210b"/><path d="m63.36 79.21h7.92v7.92h-7.92z" fill="#e0a920"/><path d="m63.36 71.29h7.92v7.92h-7.92z" fill="#fcee21"/><path d="m63.36 63.36h7.92v7.93h-7.92z" fill="#fcee21"/><path d="m63.36 55.44h7.92v7.92h-7.92z" fill="#fcee21"/><path d="m63.36 47.52h7.92v7.92h-7.92z" fill="#fcee21"/><path d="m63.36 39.6h7.92v7.92h-7.92z" fill="#fcee21"/><path d="m63.36 31.68h7.92v7.92h-7.92z" fill="#fcee21"/><path d="m63.36 23.76h7.92v7.92h-7.92z" fill="#e0a920"/><path d="m63.36 15.84h7.92v7.92h-7.92z" fill="#331707"/><path d="m63.36 7.92h7.92v7.92h-7.92z" fill="#331707"/><path d="m55.44 570.29h7.92v7.92h-7.92z" fill="#331707"/><path d="m55.44 562.37h7.92v7.92h-7.92z" fill="#331707"/><path d="m55.44 554.45h7.92v7.92h-7.92z" fill="#331707"/><path d="m55.44 546.53h7.92v7.92h-7.92z" fill="#331707"/><path d="m55.44 538.61h7.92v7.92h-7.92z" fill="#331707"/><path d="m55.44 530.69h7.92v7.92h-7.92z" fill="#331707"/><path d="m55.44 522.77h7.92v7.92h-7.92z" fill="#331707"/><path d="m55.44 514.85h7.92v7.92h-7.92z" fill="#331707"/><path d="m55.44 506.93h7.92v7.92h-7.92z" fill="#331707"/><path d="m55.44 499.01h7.92v7.92h-7.92z" fill="#331707"/><path d="m55.44 491.09h7.92v7.92h-7.92z" fill="#331707"/><path d="m55.44 483.17h7.92v7.92h-7.92z" fill="#331707"/><path d="m55.44 475.25h7.92v7.92h-7.92z" fill="#331707"/><path d="m55.44 467.32h7.92v7.93h-7.92z" fill="#331707"/><path d="m55.44 459.4h7.92v7.92h-7.92z" fill="#331707"/><path d="m55.44 451.48h7.92v7.92h-7.92z" fill="#331707"/><path d="m55.44 443.56h7.92v7.92h-7.92z" fill="#331707"/><path d="m55.44 435.64h7.92v7.92h-7.92z" fill="#331707"/><path d="m55.44 427.72h7.92v7.92h-7.92z" fill="#efcfaf"/><path d="m55.44 419.8h7.92v7.92h-7.92z" fill="#efcfaf"/><path d="m55.44 411.88h7.92v7.92h-7.92z" fill="#331707"/><path d="m55.44 403.96h7.92v7.92h-7.92z" fill="#331707"/><path d="m55.44 396.04h7.92v7.92h-7.92z" fill="#331707"/><path d="m55.44 388.12h7.92v7.92h-7.92z" fill="#331707"/><path d="m55.44 380.2h7.92v7.92h-7.92z" fill="#331707"/><path d="m55.44 372.28h7.92v7.92h-7.92z" fill="#331707"/><path d="m55.44 364.36h7.92v7.92h-7.92z" fill="#331707"/><path d="m55.44 356.44h7.92v7.92h-7.92z" fill="#331707"/><path d="m55.44 348.52h7.92v7.92h-7.92z" fill="#331707"/><path d="m55.44 340.6h7.92v7.92h-7.92z" fill="#331707"/><path d="m55.44 332.67h7.92v7.93h-7.92z" fill="#331707"/><path d="m55.44 324.75h7.92v7.92h-7.92z" fill="#331707"/><path d="m55.44 316.83h7.92v7.92h-7.92z" fill="#efcfaf"/><path d="m55.44 308.91h7.92v7.92h-7.92z" fill="#efcfaf"/><path d="m55.44 300.99h7.92v7.92h-7.92z" fill="#efcfaf"/><path d="m55.44 293.07h7.92v7.92h-7.92z" fill="#efcfaf"/><path d="m55.44 285.15h7.92v7.92h-7.92z" fill="#efcfaf"/><path d="m55.44 277.23h7.92v7.92h-7.92z" fill="#efcfaf"/><path d="m55.44 269.31h7.92v7.92h-7.92z" fill="#331707"/><path d="m55.44 221.79h7.92v7.92h-7.92z" fill="#331707"/><path d="m55.44 213.87h7.92v7.92h-7.92z" fill="#d8af91"/><path d="m55.44 205.95h7.92v7.92h-7.92z" fill="#efcfaf"/><path d="m55.44 198.01h7.92v7.93h-7.92z" fill="#efcfaf"/><path d="m55.44 190.09h7.92v7.92h-7.92z" fill="#efcfaf"/><path d="m55.44 182.17h7.92v7.92h-7.92z" fill="#efcfaf"/><path d="m55.44 174.25h7.92v7.92h-7.92z" fill="#efcfaf"/><path d="m55.44 166.33h7.92v7.92h-7.92z" fill="#efcfaf"/><path d="m55.44 158.41h7.92v7.92h-7.92z" fill="#efcfaf"/><path d="m55.44 150.49h7.92v7.92h-7.92z" fill="#efcfaf"/><path d="m55.44 142.57h7.92v7.92h-7.92z" fill="#efcfaf"/><path d="m55.44 134.65h7.92v7.92h-7.92z" fill="#d8af91"/><path d="m55.44 126.73h7.92v7.92h-7.92z" fill="#efcfaf"/><path d="m55.44 118.81h7.92v7.92h-7.92z" fill="#bc8b69"/><path d="m55.44 110.89h7.92v7.92h-7.92z" fill="#efcfaf"/><path d="m55.44 102.97h7.92v7.92h-7.92z" fill="#efcfaf"/><path d="m55.44 95.05h7.92v7.92h-7.92z" fill="#42210b"/><path d="m55.44 87.13h7.92v7.92h-7.92z" fill="#42210b"/><path d="m55.44 79.21h7.92v7.92h-7.92z" fill="#e0a920"/><path d="m55.44 71.29h7.92v7.92h-7.92z" fill="#fcee21"/><path d="m55.44 63.36h7.92v7.93h-7.92z" fill="#fcee21"/><path d="m55.44 55.44h7.92v7.92h-7.92z" fill="#fcee21"/><path d="m55.44 47.52h7.92v7.92h-7.92z" fill="#fcee21"/><path d="m55.44 39.6h7.92v7.92h-7.92z" fill="#fcee21"/><path d="m55.44 31.68h7.92v7.92h-7.92z" fill="#fcee21"/><path d="m55.44 23.76h7.92v7.92h-7.92z" fill="#e0a920"/><path d="m55.44 15.84h7.92v7.92h-7.92z" fill="#331707"/><path d="m47.52 451.48h7.92v7.92h-7.92z" fill="#331707"/><path d="m47.52 443.56h7.92v7.92h-7.92z" fill="#efcfaf"/><path d="m47.52 435.64h7.92v7.92h-7.92z" fill="#efcfaf"/><path d="m47.52 427.72h7.92v7.92h-7.92z" fill="#efcfaf"/><path d="m47.52 419.8h7.92v7.92h-7.92z" fill="#efcfaf"/><path d="m47.52 411.88h7.92v7.92h-7.92z" fill="#d8af91"/><path d="m47.52 403.96h7.92v7.92h-7.92z" fill="#d8af91"/><path d="m47.52 396.04h7.92v7.92h-7.92z" fill="#efcfaf"/><path d="m47.52 388.12h7.92v7.92h-7.92z" fill="#efcfaf"/><path d="m47.52 380.2h7.92v7.92h-7.92z" fill="#efcfaf"/><path d="m47.52 372.28h7.92v7.92h-7.92z" fill="#efcfaf"/><path d="m47.52 364.36h7.92v7.92h-7.92z" fill="#efcfaf"/><path d="m47.52 356.44h7.92v7.92h-7.92z" fill="#efcfaf"/><path d="m47.52 348.52h7.92v7.92h-7.92z" fill="#efcfaf"/><path d="m47.52 340.6h7.92v7.92h-7.92z" fill="#efcfaf"/><path d="m47.52 332.67h7.92v7.93h-7.92z" fill="#efcfaf"/><path d="m47.52 324.75h7.92v7.92h-7.92z" fill="#efcfaf"/><path d="m47.52 316.83h7.92v7.92h-7.92z" fill="#efcfaf"/><path d="m47.52 308.91h7.92v7.92h-7.92z" fill="#efcfaf"/><path d="m47.52 300.99h7.92v7.92h-7.92z" fill="#efcfaf"/><path d="m47.52 293.07h7.92v7.92h-7.92z" fill="#efcfaf"/><path d="m47.52 285.15h7.92v7.92h-7.92z" fill="#efcfaf"/><path d="m47.52 277.23h7.92v7.92h-7.92z" fill="#331707"/><path d="m47.52 213.87h7.92v7.92h-7.92z" fill="#331707"/><path d="m47.52 205.95h7.92v7.92h-7.92z" fill="#d8af91"/><path d="m47.52 198.01h7.92v7.93h-7.92z" fill="#efcfaf"/><path d="m47.52 190.09h7.92v7.92h-7.92z" fill="#efcfaf"/><path d="m47.52 182.17h7.92v7.92h-7.92z" fill="#efcfaf"/><path d="m47.52 174.25h7.92v7.92h-7.92z" fill="#efcfaf"/><path d="m47.52 166.33h7.92v7.92h-7.92z" fill="#efcfaf"/><path d="m47.52 158.41h7.92v7.92h-7.92z" fill="#efcfaf"/><path d="m47.52 150.49h7.92v7.92h-7.92z" fill="#efcfaf"/><path d="m47.52 142.57h7.92v7.92h-7.92z" fill="#efcfaf"/><path d="m47.52 134.65h7.92v7.92h-7.92z" fill="#efcfaf"/><path d="m47.52 126.73h7.92v7.92h-7.92z" fill="#efcfaf"/><path d="m47.52 118.81h7.92v7.92h-7.92z" fill="#efcfaf"/><path d="m47.52 110.89h7.92v7.92h-7.92z" fill="#42210b"/><path d="m47.52 102.97h7.92v7.92h-7.92z" fill="#42210b"/><path d="m47.52 95.05h7.92v7.92h-7.92z" fill="#42210b"/><path d="m47.52 87.13h7.92v7.92h-7.92z" fill="#e0a920"/><path d="m47.52 79.21h7.92v7.92h-7.92z" fill="#e0a920"/><path d="m47.52 71.29h7.92v7.92h-7.92z" fill="#fcee21"/><path d="m47.52 63.36h7.92v7.93h-7.92z" fill="#fcee21"/><path d="m47.52 55.44h7.92v7.92h-7.92z" fill="#fcee21"/><path d="m47.52 47.52h7.92v7.92h-7.92z" fill="#fcee21"/><path d="m47.52 39.6h7.92v7.92h-7.92z" fill="#fcee21"/><path d="m47.52 31.68h7.92v7.92h-7.92z" fill="#fcee21"/><path d="m47.52 23.76h7.92v7.92h-7.92z" fill="#e0a920"/><path d="m47.52 15.84h7.92v7.92h-7.92z" fill="#331707"/><path d="m39.6 443.56h7.92v7.92h-7.92z" fill="#331707"/><path d="m39.6 435.64h7.92v7.92h-7.92z" fill="#331707"/><path d="m39.6 427.72h7.92v7.92h-7.92z" fill="#efcfaf"/><path d="m39.6 419.8h7.92v7.92h-7.92z" fill="#efcfaf"/><path d="m39.6 411.88h7.92v7.92h-7.92z" fill="#d8af91"/><path d="m39.6 403.96h7.92v7.92h-7.92z" fill="#efcfaf"/><path d="m39.6 396.04h7.92v7.92h-7.92z" fill="#efcfaf"/><path d="m39.6 388.12h7.92v7.92h-7.92z" fill="#efcfaf"/><path d="m39.6 380.2h7.92v7.92h-7.92z" fill="#efcfaf"/><path d="m39.6 372.28h7.92v7.92h-7.92z" fill="#efcfaf"/><path d="m39.6 364.36h7.92v7.92h-7.92z" fill="#efcfaf"/><path d="m39.6 356.44h7.92v7.92h-7.92z" fill="#efcfaf"/><path d="m39.6 348.52h7.92v7.92h-7.92z" fill="#efcfaf"/><path d="m39.6 340.6h7.92v7.92h-7.92z" fill="#efcfaf"/><path d="m39.6 332.67h7.92v7.93h-7.92z" fill="#efcfaf"/><path d="m39.6 324.75h7.92v7.92h-7.92z" fill="#efcfaf"/><path d="m39.6 316.83h7.92v7.92h-7.92z" fill="#efcfaf"/><path d="m39.6 308.91h7.92v7.92h-7.92z" fill="#efcfaf"/><path d="m39.6 300.99h7.92v7.92h-7.92z" fill="#efcfaf"/><path d="m39.6 293.07h7.92v7.92h-7.92z" fill="#efcfaf"/><path d="m39.6 285.15h7.92v7.92h-7.92z" fill="#331707"/><path d="m39.6 205.95h7.92v7.92h-7.92z" fill="#331707"/><path d="m39.6 198.01h7.92v7.93h-7.92z" fill="#331707"/><path d="m39.6 190.09h7.92v7.92h-7.92z" fill="#d8af91"/><path d="m39.6 182.17h7.92v7.92h-7.92z" fill="#efcfaf"/><path d="m39.6 174.25h7.92v7.92h-7.92z" fill="#efcfaf"/><path d="m39.6 166.33h7.92v7.92h-7.92z" fill="#efcfaf"/><path d="m39.6 158.41h7.92v7.92h-7.92z" fill="#efcfaf"/><path d="m39.6 150.49h7.92v7.92h-7.92z" fill="#efcfaf"/><path d="m39.6 142.57h7.92v7.92h-7.92z" fill="#efcfaf"/><path d="m39.6 134.65h7.92v7.92h-7.92z" fill="#efcfaf"/><path d="m39.6 126.73h7.92v7.92h-7.92z" fill="#d8af91"/><path d="m39.6 118.81h7.92v7.92h-7.92z" fill="#d8af91"/><path d="m39.6 110.89h7.92v7.92h-7.92z" fill="#42210b"/><path d="m39.6 102.97h7.92v7.92h-7.92z" fill="#e0a920"/><path d="m39.6 95.05h7.92v7.92h-7.92z" fill="#e0a920"/><path d="m39.6 87.13h7.92v7.92h-7.92z" fill="#e0a920"/><path d="m39.6 79.21h7.92v7.92h-7.92z" fill="#fcee21"/><path d="m39.6 71.29h7.92v7.92h-7.92z" fill="#fcee21"/><path d="m39.6 63.36h7.92v7.93h-7.92z" fill="#e0a920"/><path d="m39.6 55.44h7.92v7.92h-7.92z" fill="#e0a920"/><path d="m39.6 47.52h7.92v7.92h-7.92z" fill="#e0a920"/><path d="m39.6 39.6h7.92v7.92h-7.92z" fill="#e0a920"/><path d="m39.6 31.68h7.92v7.92h-7.92z" fill="#fcee21"/><path d="m39.6 23.76h7.92v7.92h-7.92z" fill="#e0a920"/><path d="m39.6 15.84h7.92v7.92h-7.92z" fill="#331707"/><path d="m31.68 451.48h7.92v7.92h-7.92z" fill="#331707"/><path d="m31.68 443.56h7.92v7.92h-7.92z" fill="#efcfaf"/><path d="m31.68 435.64h7.92v7.92h-7.92z" fill="#efcfaf"/><path d="m31.68 427.72h7.92v7.92h-7.92z" fill="#efcfaf"/><path d="m31.68 419.8h7.92v7.92h-7.92z" fill="#efcfaf"/><path d="m31.68 411.88h7.92v7.92h-7.92z" fill="#efcfaf"/><path d="m31.68 403.96h7.92v7.92h-7.92z" fill="#efcfaf"/><path d="m31.68 396.04h7.92v7.92h-7.92z" fill="#efcfaf"/><path d="m31.68 388.12h7.92v7.92h-7.92z" fill="#efcfaf"/><path d="m31.68 380.2h7.92v7.92h-7.92z" fill="#efcfaf"/><path d="m31.68 372.28h7.92v7.92h-7.92z" fill="#efcfaf"/><path d="m31.68 364.36h7.92v7.92h-7.92z" fill="#efcfaf"/><path d="m31.68 356.44h7.92v7.92h-7.92z" fill="#efcfaf"/><path d="m31.68 348.52h7.92v7.92h-7.92z" fill="#efcfaf"/><path d="m31.68 340.6h7.92v7.92h-7.92z" fill="#efcfaf"/><path d="m31.68 332.67h7.92v7.93h-7.92z" fill="#efcfaf"/><path d="m31.68 324.75h7.92v7.92h-7.92z" fill="#efcfaf"/><path d="m31.68 316.83h7.92v7.92h-7.92z" fill="#efcfaf"/><path d="m31.68 308.91h7.92v7.92h-7.92z" fill="#efcfaf"/><path d="m31.68 300.99h7.92v7.92h-7.92z" fill="#efcfaf"/><path d="m31.68 293.07h7.92v7.92h-7.92z" fill="#331707"/><path d="m31.68 190.09h7.92v7.92h-7.92z" fill="#331707"/><path d="m31.68 182.17h7.92v7.92h-7.92z" fill="#331707"/><path d="m31.68 174.25h7.92v7.92h-7.92z" fill="#d8af91"/><path d="m31.68 166.33h7.92v7.92h-7.92z" fill="#d8af91"/><path d="m31.68 158.41h7.92v7.92h-7.92z" fill="#d8af91"/><path d="m31.68 150.49h7.92v7.92h-7.92z" fill="#d8af91"/><path d="m31.68 142.57h7.92v7.92h-7.92z" fill="#d8af91"/><path d="m31.68 134.65h7.92v7.92h-7.92z" fill="#d8af91"/><path d="m31.68 126.73h7.92v7.92h-7.92z" fill="#d8af91"/><path d="m31.68 118.81h7.92v7.92h-7.92z" fill="#d8af91"/><path d="m31.68 110.89h7.92v7.92h-7.92z" fill="#42210b"/><path d="m31.68 102.97h7.92v7.92h-7.92z" fill="#e0a920"/><path d="m31.68 95.05h7.92v7.92h-7.92z" fill="#fcee21"/><path d="m31.68 87.13h7.92v7.92h-7.92z" fill="#fcee21"/><path d="m31.68 79.21h7.92v7.92h-7.92z" fill="#fcee21"/><path d="m31.68 71.29h7.92v7.92h-7.92z" fill="#e0a920"/><path d="m31.68 63.36h7.92v7.93h-7.92z" fill="#e0a920"/><path d="m31.68 55.44h7.92v7.92h-7.92z" fill="#381700"/><path d="m31.68 47.52h7.92v7.92h-7.92z" fill="#381700"/><path d="m31.68 39.6h7.92v7.92h-7.92z" fill="#e0a920"/><path d="m31.68 31.68h7.92v7.92h-7.92z" fill="#e0a920"/><path d="m31.68 23.76h7.92v7.92h-7.92z" fill="#331707"/><path d="m31.68 15.84h7.92v7.92h-7.92z" fill="#331707"/><path d="m23.76 443.56h7.92v7.92h-7.92z" fill="#331707"/><path d="m23.76 435.64h7.92v7.92h-7.92z" fill="#331707"/><path d="m23.76 427.72h7.92v7.92h-7.92z" fill="#efcfaf"/><path d="m23.76 419.8h7.92v7.92h-7.92z" fill="#efcfaf"/><path d="m23.76 411.88h7.92v7.92h-7.92z" fill="#efcfaf"/><path d="m23.76 403.96h7.92v7.92h-7.92z" fill="#efcfaf"/><path d="m23.76 396.04h7.92v7.92h-7.92z" fill="#efcfaf"/><path d="m23.76 388.12h7.92v7.92h-7.92z" fill="#efcfaf"/><path d="m23.76 380.2h7.92v7.92h-7.92z" fill="#efcfaf"/><path d="m23.76 372.28h7.92v7.92h-7.92z" fill="#efcfaf"/><path d="m23.76 364.36h7.92v7.92h-7.92z" fill="#efcfaf"/><path d="m23.76 356.44h7.92v7.92h-7.92z" fill="#efcfaf"/><path d="m23.76 348.52h7.92v7.92h-7.92z" fill="#efcfaf"/><path d="m23.76 340.6h7.92v7.92h-7.92z" fill="#efcfaf"/><path d="m23.76 332.67h7.92v7.93h-7.92z" fill="#efcfaf"/><path d="m23.76 324.75h7.92v7.92h-7.92z" fill="#efcfaf"/><path d="m23.76 316.83h7.92v7.92h-7.92z" fill="#efcfaf"/><path d="m23.76 308.91h7.92v7.92h-7.92z" fill="#efcfaf"/><path d="m23.76 300.99h7.92v7.92h-7.92z" fill="#331707"/><path d="m23.76 174.25h7.92v7.92h-7.92z" fill="#331707"/><path d="m23.76 166.33h7.92v7.92h-7.92z" fill="#331707"/><path d="m23.76 158.41h7.92v7.92h-7.92z" fill="#331707"/><path d="m23.76 150.49h7.92v7.92h-7.92z" fill="#331707"/><path d="m23.76 142.57h7.92v7.92h-7.92z" fill="#d8af91"/><path d="m23.76 134.65h7.92v7.92h-7.92z" fill="#d8af91"/><path d="m23.76 126.73h7.92v7.92h-7.92z" fill="#d8af91"/><path d="m23.76 118.81h7.92v7.92h-7.92z" fill="#42210b"/><path d="m23.76 110.89h7.92v7.92h-7.92z" fill="#e0a920"/><path d="m23.76 102.97h7.92v7.92h-7.92z" fill="#e0a920"/><path d="m23.76 95.05h7.92v7.92h-7.92z" fill="#e0a920"/><path d="m23.76 87.13h7.92v7.92h-7.92z" fill="#e0a920"/><path d="m23.76 79.21h7.92v7.92h-7.92z" fill="#e0a920"/><path d="m23.76 71.29h7.92v7.92h-7.92z" fill="#331707"/><path d="m23.76 63.36h7.92v7.93h-7.92z" fill="#331707"/><path d="m23.76 55.44h7.92v7.92h-7.92z" fill="#331707"/><path d="m23.76 47.52h7.92v7.92h-7.92z" fill="#331707"/><path d="m23.76 39.6h7.92v7.92h-7.92z" fill="#e0a920"/><path d="m23.76 31.68h7.92v7.92h-7.92z" fill="#e0a920"/><path d="m23.76 23.76h7.92v7.92h-7.92z" fill="#331707"/><path d="m15.84 427.72h7.92v7.92h-7.92z" fill="#331707"/><path d="m15.84 419.8h7.92v7.92h-7.92z" fill="#331707"/><path d="m15.84 411.88h7.92v7.92h-7.92z" fill="#331707"/><path d="m15.84 403.96h7.92v7.92h-7.92z" fill="#331707"/><path d="m15.84 396.04h7.92v7.92h-7.92z" fill="#331707"/><path d="m15.84 388.12h7.92v7.92h-7.92z" fill="#331707"/><path d="m15.84 380.2h7.92v7.92h-7.92z" fill="#331707"/><path d="m15.84 372.28h7.92v7.92h-7.92z" fill="#331707"/><path d="m15.84 364.36h7.92v7.92h-7.92z" fill="#331707"/><path d="m15.84 356.44h7.92v7.92h-7.92z" fill="#331707"/><path d="m15.84 348.52h7.92v7.92h-7.92z" fill="#331707"/><path d="m15.84 340.6h7.92v7.92h-7.92z" fill="#331707"/><path d="m15.84 332.67h7.92v7.93h-7.92z" fill="#331707"/><path d="m15.84 324.75h7.92v7.92h-7.92z" fill="#331707"/><path d="m15.84 316.83h7.92v7.92h-7.92z" fill="#331707"/><path d="m15.84 308.91h7.92v7.92h-7.92z" fill="#331707"/><path d="m15.84 142.57h7.92v7.92h-7.92z" fill="#331707"/><path d="m15.84 134.65h7.92v7.92h-7.92z" fill="#331707"/><path d="m15.84 126.73h7.92v7.92h-7.92z" fill="#331707"/><path d="m15.84 118.81h7.92v7.92h-7.92z" fill="#e0a920"/><path d="m15.84 110.89h7.92v7.92h-7.92z" fill="#e0a920"/><path d="m15.84 102.97h7.92v7.92h-7.92z" fill="#e0a920"/><path d="m15.84 95.05h7.92v7.92h-7.92z" fill="#e0a920"/><path d="m15.84 87.13h7.92v7.92h-7.92z" fill="#331707"/><path d="m15.84 79.21h7.92v7.92h-7.92z" fill="#331707"/><path d="m15.84 71.29h7.92v7.92h-7.92z" fill="#331707"/><path d="m15.84 47.52h7.92v7.92h-7.92z" fill="#331707"/><path d="m15.84 39.6h7.92v7.92h-7.92z" fill="#e0a920"/><path d="m15.84 31.68h7.92v7.92h-7.92z" fill="#331707"/><path d="m15.84 23.76h7.92v7.92h-7.92z" fill="#331707"/><path d="m7.92 126.73h7.92v7.92h-7.92z" fill="#331707"/><path d="m7.92 118.81h7.92v7.92h-7.92z" fill="#331707"/><path d="m7.92 110.89h7.92v7.92h-7.92z" fill="#331707"/><path d="m7.92 102.97h7.92v7.92h-7.92z" fill="#331707"/><path d="m7.92 95.05h7.92v7.92h-7.92z" fill="#331707"/><path d="m7.92 87.13h7.92v7.92h-7.92z" fill="#331707"/><path d="m7.92 47.52h7.92v7.92h-7.92z" fill="#331707"/><path d="m7.92 39.6h7.92v7.92h-7.92z" fill="#e0a920"/><path d="m7.92 31.68h7.92v7.92h-7.92z" fill="#331707"/><path d="m0 39.6h7.92v7.92h-7.92z" fill="#331707"/></svg>